STARTFONT 2.1
FONT -WRI-Mathematica2Mono-Medium-R-Normal--32-320-75-75-M-210-Adobe-FontSpecific
SIZE 32 75 75
FONTBOUNDINGBOX 67 210 -6 -131
STARTPROPERTIES 16
FOUNDRY "WRI"
FAMILY_NAME "Mathematica2Mono"
WEIGHT_NAME "Medium"
SLANT "R"
SETWIDTH_NAME "Normal"
PIXEL_SIZE 32
POINT_SIZE 320
RESOLUTION_X 75
RESOLUTION_Y 75
SPACING "M"
AVERAGE_WIDTH 210
CHARSET_REGISTRY "Adobe"
CHARSET_ENCODING "FontSpecific"
FONT_DESCENT 131
FONT_ASCENT 79
DEFAULT_CHAR 32
ENDPROPERTIES
CHARS 223
STARTCHAR space
ENCODING 32
SWIDTH 263 0
DWIDTH 8 0
BBX 0 0 0 0
BITMAP
ENDCHAR
STARTCHAR Radical1Extens
ENCODING 33
SWIDTH 255 0
DWIDTH 8 0
BBX 8 1 0 11
BITMAP
ff
ENDCHAR
STARTCHAR Radical2
ENCODING 34
SWIDTH 919 0
DWIDTH 29 0
BBX 28 51 2 -27
BITMAP
00000070
000000c0
00000080
00000080
00000080
00000180
00000180
00000100
00000100
00000100
00000300
00000300
00000200
00000200
00000200
00000600
00000400
00000400
00000400
00000400
00000c00
00000800
00000800
00000800
00001800
00001800
00001000
04001000
1c001000
74003000
c6003000
02002000
03002000
01002000
01806000
00806000
00c04000
00404000
00604000
0020c000
00308000
00108000
00188000
00088000
000d8000
00050000
00050000
00030000
00030000
00010000
00010000
ENDCHAR
STARTCHAR Radical2Extens
ENCODING 35
SWIDTH 255 0
DWIDTH 8 0
BBX 8 1 0 23
BITMAP
ff
ENDCHAR
STARTCHAR Radical3
ENCODING 36
SWIDTH 1064 0
DWIDTH 34 0
BBX 33 92 2 -36
BITMAP
0000000f80
0000000c00
0000000c00
0000000800
0000000800
0000000800
0000000800
0000001800
0000001800
0000001000
0000001000
0000001000
0000001000
0000001000
0000003000
0000003000
0000002000
0000002000
0000002000
0000002000
0000002000
0000006000
0000006000
0000004000
0000004000
0000004000
0000004000
0000004000
000000c000
000000c000
0000008000
0000008000
0000008000
0000008000
0000018000
0000018000
0000010000
0000010000
0000010000
0000010000
0000010000
0000030000
0000030000
0000020000
0000020000
0000020000
0000020000
0000020000
0000060000
0000060000
0000040000
0000040000
0000040000
0000040000
0000040000
00000c0000
00000c0000
0000080000
0000080000
0c00080000
3c00080000
e400080000
4600180000
0200100000
0200100000
0300100000
0100100000
0180100000
0180100000
0080300000
00c0200000
0040200000
0040200000
0060200000
0020200000
0020600000
0030600000
0010400000
0018400000
0008400000
0008400000
000c400000
0004c00000
0004c00000
0006800000
0002800000
0003800000
0001800000
0001800000
0001800000
0000800000
0000800000
ENDCHAR
STARTCHAR Radical3Extens
ENCODING 37
SWIDTH 255 0
DWIDTH 8 0
BBX 8 1 0 55
BITMAP
ff
ENDCHAR
STARTCHAR Radical4
ENCODING 38
SWIDTH 1072 0
DWIDTH 34 0
BBX 33 125 2 -47
BITMAP
0000003f80
0000003000
0000003000
0000002000
0000002000
0000002000
0000002000
0000002000
0000002000
0000002000
0000002000
0000002000
0000006000
0000006000
0000006000
0000004000
0000004000
0000004000
0000004000
0000004000
0000004000
0000004000
0000004000
000000c000
000000c000
000000c000
0000008000
0000008000
0000008000
0000008000
0000008000
0000008000
0000008000
0000008000
0000018000
0000018000
0000018000
0000018000
0000010000
0000010000
0000010000
0000010000
0000010000
0000010000
0000010000
0000030000
0000030000
0000030000
0000030000
0000030000
0000020000
0000020000
0000020000
0000020000
0000020000
0000020000
0000020000
0000060000
0000060000
0000060000
0000060000
0000040000
0000040000
0000040000
0000040000
0000040000
0000040000
0000040000
00000c0000
00000c0000
00000c0000
00000c0000
00000c0000
0000080000
0000080000
0000080000
0000080000
0000080000
0000080000
0000180000
0000180000
0800180000
1800180000
6800180000
cc00100000
0400100000
0400100000
0600100000
0200100000
0200100000
0300300000
0100300000
0100300000
0100300000
0080300000
0080300000
0080200000
0040200000
0040200000
0040200000
0060200000
0020200000
0020600000
0020600000
0010600000
0010600000
0010600000
0008600000
0008400000
0008400000
0004400000
0004400000
0004400000
0004c00000
0002c00000
0002c00000
0002c00000
0001c00000
0001c00000
0001800000
0000800000
0000800000
0000800000
0000400000
0000400000
ENDCHAR
STARTCHAR Radical4Extens
ENCODING 39
SWIDTH 255 0
DWIDTH 8 0
BBX 8 1 0 76
BITMAP
ff
ENDCHAR
STARTCHAR Radical5
ENCODING 40
SWIDTH 994 0
DWIDTH 32 0
BBX 22 132 2 -53
BITMAP
000008
000008
000008
000008
000008
000008
000008
000008
000008
000008
000008
000008
000008
000008
000008
000008
000008
000008
000008
000008
000008
000008
000008
000008
000008
000008
000008
000008
000008
000008
000008
000008
000008
000008
000008
000008
000008
000008
000008
000008
000008
000008
000008
000008
000008
000008
000008
000008
000008
000008
000008
000008
000008
000008
000008
000008
000008
000008
000008
000008
000008
000008
000008
000008
000008
000008
000008
000008
000008
000008
000008
000008
000008
000008
000008
000008
000008
000008
000008
000008
000008
000008
040008
1c0008
f40008
460008
020008
020008
030008
010008
010008
018008
008008
008008
00c008
004008
004008
006008
002008
002008
003008
001008
001008
001808
000808
000c08
000c08
000408
000608
000608
000208
000308
000308
000108
000188
000188
000088
0000c8
0000c8
000048
000068
000068
000028
000038
000038
000018
000018
000018
000008
000008
000008
000004
ENDCHAR
STARTCHAR Radical5VertExtens
ENCODING 41
SWIDTH 994 0
DWIDTH 32 0
BBX 1 10 21 0
BITMAP
80
80
80
80
80
80
80
80
80
80
ENDCHAR
STARTCHAR Radical5Top
ENCODING 42
SWIDTH 994 0
DWIDTH 32 0
BBX 10 10 21 0
BITMAP
ffc0
8000
8000
8000
8000
8000
8000
8000
8000
8000
ENDCHAR
STARTCHAR Radical5Extens
ENCODING 43
SWIDTH 255 0
DWIDTH 8 0
BBX 8 1 0 8
BITMAP
ff
ENDCHAR
STARTCHAR FixedFreeRadical1
ENCODING 44
SWIDTH 819 0
DWIDTH 26 0
BBX 23 34 2 -22
BITMAP
000006
000004
000004
000004
00000c
000008
000008
000018
000010
000010
000030
000020
000020
000020
000060
080040
3c0040
e400c0
460080
020080
030080
010180
018100
008100
00c300
004200
006200
002600
003400
001400
001c00
000c00
000800
000400
ENDCHAR
STARTCHAR FixedFreeRadical2
ENCODING 45
SWIDTH 919 0
DWIDTH 29 0
BBX 26 51 2 -27
BITMAP
000000c0
00000080
00000080
00000080
00000080
00000180
00000100
00000100
00000100
00000100
00000300
00000200
00000200
00000200
00000600
00000600
00000400
00000400
00000400
00000c00
00000c00
00000800
00000800
00000800
00001800
00001000
00001000
04001000
1c001000
74003000
c6002000
02002000
03002000
01006000
01806000
00804000
00c04000
00404000
0060c000
0020c000
00308000
00108000
00108000
00098000
00098000
00050000
00050000
00070000
00030000
00020000
00010000
ENDCHAR
STARTCHAR FixedFreeRadical3
ENCODING 46
SWIDTH 1063 0
DWIDTH 34 0
BBX 30 92 2 -36
BITMAP
0000000c
0000000c
00000008
00000008
00000008
00000008
00000018
00000018
00000018
00000010
00000010
00000010
00000010
00000030
00000030
00000020
00000020
00000020
00000020
00000020
00000060
00000060
00000040
00000040
00000040
00000040
00000040
000000c0
000000c0
00000080
00000080
00000080
00000080
00000080
00000180
00000180
00000100
00000100
00000100
00000100
00000100
00000300
00000200
00000200
00000200
00000200
00000200
00000600
00000600
00000400
00000400
00000400
00000400
00000400
00000c00
00000c00
00000800
00000800
00000800
0c000800
3c000800
e4001800
46001800
02001000
02001000
03001000
01001000
01801000
01803000
00803000
00c02000
00402000
00402000
00602000
00202000
00206000
00304000
00104000
00184000
00084000
00084000
000c4000
0004c000
00048000
00068000
00028000
00038000
00018000
00018000
00018000
00008000
00008000
ENDCHAR
STARTCHAR FixedFreeRadical4
ENCODING 47
SWIDTH 1072 0
DWIDTH 34 0
BBX 28 125 2 -47
BITMAP
00000030
00000030
00000020
00000020
00000020
00000020
00000020
00000020
00000020
00000020
00000020
00000060
00000060
00000060
00000040
00000040
00000040
00000040
00000040
00000040
00000040
00000040
000000c0
000000c0
000000c0
00000080
00000080
00000080
00000080
00000080
00000080
00000080
00000080
00000180
00000180
00000180
00000180
00000100
00000100
00000100
00000100
00000100
00000100
00000100
00000100
00000300
00000300
00000300
00000300
00000200
00000200
00000200
00000200
00000200
00000200
00000200
00000600
00000600
00000600
00000600
00000600
00000400
00000400
00000400
00000400
00000400
00000400
00000c00
00000c00
00000c00
00000c00
00000c00
00000800
00000800
00000800
00000800
00000800
00000800
00000800
00001800
00001800
08001800
18001800
68001800
cc001000
04001000
04001000
06001000
02001000
02001000
03003000
01003000
01003000
01003000
00803000
00803000
00802000
00402000
00402000
00402000
00602000
00202000
00206000
00206000
00106000
00106000
00106000
00084000
00084000
00084000
00044000
00044000
00044000
0004c000
0002c000
0002c000
0002c000
0001c000
0001c000
00018000
00008000
00008000
00008000
00004000
00004000
ENDCHAR
STARTCHAR TexRad1
ENCODING 48
SWIDTH 819 0
DWIDTH 26 0
BBX 25 34 2 -33
BITMAP
00000380
00000200
00000600
00000400
00000400
00000c00
00000800
00000800
00000800
00001800
00001000
00001000
00003000
00002000
00002000
0c006000
3c004000
e6004000
02004000
0300c000
01008000
01808000
00818000
00c10000
00410000
00630000
00220000
00320000
00120000
00160000
000c0000
000c0000
000c0000
00040000
ENDCHAR
STARTCHAR TexRad2
ENCODING 49
SWIDTH 919 0
DWIDTH 29 0
BBX 28 51 2 -50
BITMAP
00000070
000000c0
00000080
00000080
00000080
00000180
00000180
00000100
00000100
00000100
00000300
00000300
00000200
00000200
00000200
00000600
00000400
00000400
00000400
00000400
00000c00
00000800
00000800
00000800
00001800
00001800
00001000
04001000
1c001000
74003000
c6003000
02002000
03002000
01002000
01806000
00806000
00c04000
00404000
00604000
0020c000
00308000
00108000
00188000
00088000
000d8000
00050000
00050000
00030000
00030000
00010000
00010000
ENDCHAR
STARTCHAR TexRad3
ENCODING 50
SWIDTH 1064 0
DWIDTH 34 0
BBX 33 92 2 -91
BITMAP
0000000f80
0000000c00
0000000c00
0000000800
0000000800
0000000800
0000000800
0000001800
0000001800
0000001000
0000001000
0000001000
0000001000
0000001000
0000003000
0000003000
0000002000
0000002000
0000002000
0000002000
0000002000
0000006000
0000006000
0000004000
0000004000
0000004000
0000004000
0000004000
000000c000
000000c000
0000008000
0000008000
0000008000
0000008000
0000018000
0000018000
0000010000
0000010000
0000010000
0000010000
0000010000
0000030000
0000030000
0000020000
0000020000
0000020000
0000020000
0000020000
0000060000
0000060000
0000040000
0000040000
0000040000
0000040000
0000040000
00000c0000
00000c0000
0000080000
0000080000
0c00080000
3c00080000
e400080000
4600180000
0200100000
0200100000
0300100000
0100100000
0180100000
0080100000
0080300000
00c0200000
0040200000
0040200000
0060200000
0020200000
0030600000
0030600000
0010400000
0018400000
0008400000
0008400000
000c400000
0004c00000
0004c00000
0006800000
0002800000
0003800000
0001800000
0001800000
0001800000
0000800000
0000800000
ENDCHAR
STARTCHAR TexRad4
ENCODING 51
SWIDTH 1072 0
DWIDTH 34 0
BBX 33 124 2 -123
BITMAP
0000003f80
0000003000
0000003000
0000002000
0000002000
0000002000
0000002000
0000002000
0000002000
0000002000
0000002000
0000002000
0000006000
0000006000
0000006000
0000004000
0000004000
0000004000
0000004000
0000004000
0000004000
0000004000
0000004000
000000c000
000000c000
000000c000
0000008000
0000008000
0000008000
0000008000
0000008000
0000008000
0000008000
0000008000
0000018000
0000018000
0000018000
0000018000
0000010000
0000010000
0000010000
0000010000
0000010000
0000010000
0000010000
0000030000
0000030000
0000030000
0000030000
0000020000
0000020000
0000020000
0000020000
0000020000
0000020000
0000020000
0000060000
0000060000
0000060000
0000060000
0000060000
0000040000
0000040000
0000040000
0000040000
0000040000
0000040000
00000c0000
00000c0000
00000c0000
00000c0000
00000c0000
0000080000
0000080000
0000080000
0000080000
0000080000
0000080000
0000080000
0000180000
0800180000
1800180000
6800180000
cc00180000
0400100000
0400100000
0600100000
0200100000
0200100000
0300100000
0100300000
0100300000
0100300000
0080300000
0080300000
0080200000
0040200000
0040200000
0040200000
0060200000
0020200000
0020600000
0020600000
0010600000
0010600000
0010600000
0008600000
0008400000
0008400000
0004400000
0004400000
0004400000
0004c00000
0002c00000
0002c00000
0002c00000
0001c00000
0001c00000
0001800000
0000800000
0000800000
0000800000
0000400000
0000400000
ENDCHAR
STARTCHAR TexRad5
ENCODING 52
SWIDTH 994 0
DWIDTH 32 0
BBX 22 132 2 -131
BITMAP
000008
000008
000008
000008
000008
000008
000008
000008
000008
000008
000008
000008
000008
000008
000008
000008
000008
000008
000008
000008
000008
000008
000008
000008
000008
000008
000008
000008
000008
000008
000008
000008
000008
000008
000008
000008
000008
000008
000008
000008
000008
000008
000008
000008
000008
000008
000008
000008
000008
000008
000008
000008
000008
000008
000008
000008
000008
000008
000008
000008
000008
000008
000008
000008
000008
000008
000008
000008
000008
000008
000008
000008
000008
000008
000008
000008
000008
000008
000008
000008
000008
000008
040008
1c0008
f40008
460008
020008
020008
030008
010008
010008
018008
008008
008008
00c008
004008
004008
006008
002008
002008
003008
001008
001008
001808
000808
000c08
000c08
000408
000608
000608
000208
000308
000308
000108
000188
000188
000088
0000c8
0000c8
000048
000068
000068
000028
000038
000038
000018
000018
000018
000008
000008
000008
000004
ENDCHAR
STARTCHAR TexRad5VertExt
ENCODING 53
SWIDTH 994 0
DWIDTH 32 0
BBX 1 10 21 -8
BITMAP
80
80
80
80
80
80
80
80
80
80
ENDCHAR
STARTCHAR TexRad5Top
ENCODING 54
SWIDTH 994 0
DWIDTH 32 0
BBX 10 9 21 -8
BITMAP
ffc0
8000
8000
8000
8000
8000
8000
8000
8000
ENDCHAR
STARTCHAR TexRadExtens
ENCODING 55
SWIDTH 255 0
DWIDTH 8 0
BBX 8 1 0 0
BITMAP
ff
ENDCHAR
STARTCHAR LBrace1
ENCODING 56
SWIDTH 600 0
DWIDTH 19 0
BBX 8 26 6 -6
BITMAP
07
08
10
10
10
10
10
10
10
10
10
30
e0
e0
30
10
10
10
10
10
10
10
10
10
08
07
ENDCHAR
STARTCHAR LBrace2
ENCODING 57
SWIDTH 600 0
DWIDTH 19 0
BBX 9 40 5 -13
BITMAP
0180
0600
0c00
0800
0800
0800
0800
0800
0800
0800
0800
0800
0800
0800
0800
0800
0800
0800
1000
e000
e000
1000
0800
0800
0800
0800
0800
0800
0800
0800
0800
0800
0800
0800
0800
0800
0800
0c00
0600
0180
ENDCHAR
STARTCHAR LBrace3
ENCODING 58
SWIDTH 600 0
DWIDTH 19 0
BBX 12 54 4 -20
BITMAP
0070
0180
0200
0400
0400
0400
0400
0400
0400
0400
0400
0400
0400
0400
0400
0400
0400
0400
0400
0400
0400
0400
0400
0400
0800
1800
e000
e000
1800
0800
0400
0400
0400
0400
0400
0400
0400
0400
0400
0400
0400
0400
0400
0400
0400
0400
0400
0400
0400
0400
0400
0200
0180
0070
ENDCHAR
STARTCHAR LBrace4
ENCODING 59
SWIDTH 600 0
DWIDTH 19 0
BBX 14 67 3 -26
BITMAP
003c
00e0
0180
0100
0200
0200
0200
0200
0200
0200
0200
0200
0200
0200
0200
0200
0200
0200
0200
0200
0200
0200
0200
0200
0200
0200
0200
0200
0400
0400
0c00
1800
3000
c000
3000
1800
0c00
0400
0600
0200
0200
0200
0200
0200
0200
0200
0200
0200
0200
0200
0200
0200
0200
0200
0200
0200
0200
0200
0200
0200
0200
0200
0200
0100
0180
00e0
003c
ENDCHAR
STARTCHAR RBrace1
ENCODING 60
SWIDTH 600 0
DWIDTH 19 0
BBX 8 26 5 -6
BITMAP
e0
10
08
08
08
08
08
08
08
08
08
04
03
04
08
08
08
08
08
08
08
08
08
08
30
e0
ENDCHAR
STARTCHAR RBrace2
ENCODING 61
SWIDTH 600 0
DWIDTH 19 0
BBX 9 40 5 -13
BITMAP
c000
3000
1800
0800
0800
0800
0800
0800
0800
0800
0800
0800
0800
0800
0800
0800
0800
0c00
0600
0180
0600
0c00
0800
0800
0800
0800
0800
0800
0800
0800
0800
0800
0800
0800
0800
0800
0800
1800
3000
c000
ENDCHAR
STARTCHAR RBrace3
ENCODING 62
SWIDTH 600 0
DWIDTH 19 0
BBX 12 54 3 -20
BITMAP
e000
1800
0400
0200
0200
0200
0200
0200
0200
0200
0200
0200
0200
0200
0200
0200
0200
0200
0200
0200
0200
0200
0200
0300
0100
00c0
0030
00c0
0100
0100
0200
0200
0200
0200
0200
0200
0200
0200
0200
0200
0200
0200
0200
0200
0200
0200
0200
0200
0200
0200
0600
0400
1800
e000
ENDCHAR
STARTCHAR RBrace4
ENCODING 63
SWIDTH 600 0
DWIDTH 19 0
BBX 14 67 2 -26
BITMAP
f000
1c00
0600
0200
0100
0100
0100
0100
0100
0100
0100
0100
0100
0100
0100
0100
0100
0100
0100
0100
0100
0100
0100
0100
0100
0100
0100
0100
0180
0080
00c0
0060
0030
000c
0030
0060
00c0
0080
0180
0100
0100
0100
0100
0100
0100
0100
0100
0100
0100
0100
0100
0100
0100
0100
0100
0100
0100
0100
0100
0100
0100
0100
0100
0200
0600
1c00
f000
ENDCHAR
STARTCHAR LBracket1
ENCODING 64
SWIDTH 600 0
DWIDTH 19 0
BBX 5 26 9 -6
BITMAP
f8
80
80
80
80
80
80
80
80
80
80
80
80
80
80
80
80
80
80
80
80
80
80
80
80
f8
ENDCHAR
STARTCHAR LBracket2
ENCODING 65
SWIDTH 600 0
DWIDTH 19 0
BBX 6 41 9 -12
BITMAP
fc
80
80
80
80
80
80
80
80
80
80
80
80
80
80
80
80
80
80
80
80
80
80
80
80
80
80
80
80
80
80
80
80
80
80
80
80
80
80
80
fc
ENDCHAR
STARTCHAR LBracket3
ENCODING 66
SWIDTH 600 0
DWIDTH 19 0
BBX 6 54 9 -19
BITMAP
fc
80
80
80
80
80
80
80
80
80
80
80
80
80
80
80
80
80
80
80
80
80
80
80
80
80
80
80
80
80
80
80
80
80
80
80
80
80
80
80
80
80
80
80
80
80
80
80
80
80
80
80
80
fc
ENDCHAR
STARTCHAR LBracket4
ENCODING 67
SWIDTH 600 0
DWIDTH 19 0
BBX 6 67 9 -25
BITMAP
fc
80
80
80
80
80
80
80
80
80
80
80
80
80
80
80
80
80
80
80
80
80
80
80
80
80
80
80
80
80
80
80
80
80
80
80
80
80
80
80
80
80
80
80
80
80
80
80
80
80
80
80
80
80
80
80
80
80
80
80
80
80
80
80
80
80
fc
ENDCHAR
STARTCHAR RBracket1
ENCODING 68
SWIDTH 600 0
DWIDTH 19 0
BBX 5 26 5 -6
BITMAP
f8
08
08
08
08
08
08
08
08
08
08
08
08
08
08
08
08
08
08
08
08
08
08
08
08
f8
ENDCHAR
STARTCHAR RBracket2
ENCODING 69
SWIDTH 600 0
DWIDTH 19 0
BBX 5 41 5 -12
BITMAP
f8
08
08
08
08
08
08
08
08
08
08
08
08
08
08
08
08
08
08
08
08
08
08
08
08
08
08
08
08
08
08
08
08
08
08
08
08
08
08
08
f8
ENDCHAR
STARTCHAR RBracket3
ENCODING 70
SWIDTH 600 0
DWIDTH 19 0
BBX 6 54 4 -19
BITMAP
fc
04
04
04
04
04
04
04
04
04
04
04
04
04
04
04
04
04
04
04
04
04
04
04
04
04
04
04
04
04
04
04
04
04
04
04
04
04
04
04
04
04
04
04
04
04
04
04
04
04
04
04
04
fc
ENDCHAR
STARTCHAR RBracket4
ENCODING 71
SWIDTH 600 0
DWIDTH 19 0
BBX 6 67 4 -25
BITMAP
fc
04
04
04
04
04
04
04
04
04
04
04
04
04
04
04
04
04
04
04
04
04
04
04
04
04
04
04
04
04
04
04
04
04
04
04
04
04
04
04
04
04
04
04
04
04
04
04
04
04
04
04
04
04
04
04
04
04
04
04
04
04
04
04
04
04
fc
ENDCHAR
STARTCHAR LParen1
ENCODING 72
SWIDTH 600 0
DWIDTH 19 0
BBX 5 26 9 -6
BITMAP
08
08
10
30
20
20
40
40
40
80
80
80
80
80
80
80
80
40
40
40
60
20
30
10
18
08
ENDCHAR
STARTCHAR LParen2
ENCODING 73
SWIDTH 600 0
DWIDTH 19 0
BBX 6 40 9 -13
BITMAP
0c
08
08
10
10
30
20
20
60
40
40
40
40
c0
80
80
80
80
80
80
80
80
80
80
80
80
80
40
40
40
40
60
20
20
30
10
10
18
08
0c
ENDCHAR
STARTCHAR LParen3
ENCODING 74
SWIDTH 600 0
DWIDTH 19 0
BBX 6 54 9 -20
BITMAP
04
04
08
08
18
10
10
30
20
20
20
60
40
40
40
40
40
c0
80
80
80
80
80
80
80
80
80
80
80
80
80
80
80
80
80
80
c0
40
40
40
40
40
60
20
20
20
30
10
10
18
08
08
04
04
ENDCHAR
STARTCHAR LParen4
ENCODING 75
SWIDTH 600 0
DWIDTH 19 0
BBX 6 66 9 -26
BITMAP
04
04
0c
08
08
10
10
10
30
20
20
20
20
60
40
40
40
40
40
40
c0
c0
80
80
80
80
80
80
80
80
80
80
80
80
80
80
80
80
80
80
80
80
80
80
80
40
40
40
40
40
40
40
60
20
20
20
20
30
10
10
10
08
08
0c
04
04
ENDCHAR
STARTCHAR RParen1
ENCODING 76
SWIDTH 600 0
DWIDTH 19 0
BBX 5 26 5 -6
BITMAP
80
80
40
60
20
20
10
10
10
08
08
08
08
08
08
08
08
10
10
10
30
20
60
40
c0
80
ENDCHAR
STARTCHAR RParen2
ENCODING 77
SWIDTH 600 0
DWIDTH 19 0
BBX 6 40 4 -13
BITMAP
c0
40
40
20
20
30
10
10
18
08
08
08
08
0c
04
04
04
04
04
04
04
04
04
04
04
04
08
08
08
08
08
10
10
10
30
20
20
60
40
c0
ENDCHAR
STARTCHAR RParen3
ENCODING 78
SWIDTH 600 0
DWIDTH 19 0
BBX 6 54 4 -20
BITMAP
80
40
40
60
20
20
20
10
10
10
10
08
08
08
08
08
08
0c
04
04
04
04
04
04
04
04
04
04
04
04
04
04
04
04
04
04
0c
08
08
08
08
08
08
10
10
10
10
30
20
20
60
40
40
80
ENDCHAR
STARTCHAR RParen4
ENCODING 79
SWIDTH 600 0
DWIDTH 19 0
BBX 6 66 4 -26
BITMAP
80
40
40
40
20
20
20
30
10
10
10
10
18
08
08
08
08
08
08
08
0c
04
04
04
04
04
04
04
04
04
04
04
04
04
04
04
04
04
04
04
04
04
04
04
04
0c
08
08
08
08
08
08
08
18
10
10
10
10
20
20
20
20
40
40
40
80
ENDCHAR
STARTCHAR DblLBracket1
ENCODING 80
SWIDTH 600 0
DWIDTH 19 0
BBX 9 26 7 -6
BITMAP
ff80
8800
8800
8800
8800
8800
8800
8800
8800
8800
8800
8800
8800
8800
8800
8800
8800
8800
8800
8800
8800
8800
8800
8800
8800
ff80
ENDCHAR
STARTCHAR DblLBracket2
ENCODING 81
SWIDTH 600 0
DWIDTH 19 0
BBX 9 41 7 -12
BITMAP
ff80
8800
8800
8800
8800
8800
8800
8800
8800
8800
8800
8800
8800
8800
8800
8800
8800
8800
8800
8800
8800
8800
8800
8800
8800
8800
8800
8800
8800
8800
8800
8800
8800
8800
8800
8800
8800
8800
8800
8800
ff80
ENDCHAR
STARTCHAR DblLBracket3
ENCODING 82
SWIDTH 600 0
DWIDTH 19 0
BBX 9 54 7 -19
BITMAP
ff80
8800
8800
8800
8800
8800
8800
8800
8800
8800
8800
8800
8800
8800
8800
8800
8800
8800
8800
8800
8800
8800
8800
8800
8800
8800
8800
8800
8800
8800
8800
8800
8800
8800
8800
8800
8800
8800
8800
8800
8800
8800
8800
8800
8800
8800
8800
8800
8800
8800
8800
8800
8800
ff80
ENDCHAR
STARTCHAR DblLBracket4
ENCODING 83
SWIDTH 600 0
DWIDTH 19 0
BBX 9 67 7 -25
BITMAP
ff80
8800
8800
8800
8800
8800
8800
8800
8800
8800
8800
8800
8800
8800
8800
8800
8800
8800
8800
8800
8800
8800
8800
8800
8800
8800
8800
8800
8800
8800
8800
8800
8800
8800
8800
8800
8800
8800
8800
8800
8800
8800
8800
8800
8800
8800
8800
8800
8800
8800
8800
8800
8800
8800
8800
8800
8800
8800
8800
8800
8800
8800
8800
8800
8800
8800
ff80
ENDCHAR
STARTCHAR DblRBracket1
ENCODING 84
SWIDTH 600 0
DWIDTH 19 0
BBX 9 26 3 -6
BITMAP
ff80
0880
0880
0880
0880
0880
0880
0880
0880
0880
0880
0880
0880
0880
0880
0880
0880
0880
0880
0880
0880
0880
0880
0880
0880
ff80
ENDCHAR
STARTCHAR DblRBracket2
ENCODING 85
SWIDTH 600 0
DWIDTH 19 0
BBX 9 41 3 -12
BITMAP
ff80
0880
0880
0880
0880
0880
0880
0880
0880
0880
0880
0880
0880
0880
0880
0880
0880
0880
0880
0880
0880
0880
0880
0880
0880
0880
0880
0880
0880
0880
0880
0880
0880
0880
0880
0880
0880
0880
0880
0880
ff80
ENDCHAR
STARTCHAR DblRBracket3
ENCODING 86
SWIDTH 600 0
DWIDTH 19 0
BBX 9 54 3 -19
BITMAP
ff80
0880
0880
0880
0880
0880
0880
0880
0880
0880
0880
0880
0880
0880
0880
0880
0880
0880
0880
0880
0880
0880
0880
0880
0880
0880
0880
0880
0880
0880
0880
0880
0880
0880
0880
0880
0880
0880
0880
0880
0880
0880
0880
0880
0880
0880
0880
0880
0880
0880
0880
0880
0880
ff80
ENDCHAR
STARTCHAR DblRBracket4
ENCODING 87
SWIDTH 600 0
DWIDTH 19 0
BBX 9 67 3 -25
BITMAP
ff80
0880
0880
0880
0880
0880
0880
0880
0880
0880
0880
0880
0880
0880
0880
0880
0880
0880
0880
0880
0880
0880
0880
0880
0880
0880
0880
0880
0880
0880
0880
0880
0880
0880
0880
0880
0880
0880
0880
0880
0880
0880
0880
0880
0880
0880
0880
0880
0880
0880
0880
0880
0880
0880
0880
0880
0880
0880
0880
0880
0880
0880
0880
0880
0880
0880
ff80
ENDCHAR
STARTCHAR LAngleBracket1
ENCODING 88
SWIDTH 600 0
DWIDTH 19 0
BBX 9 26 5 -6
BITMAP
0180
0100
0200
0200
0400
0400
0800
1000
1000
2000
2000
4000
c000
c000
4000
2000
2000
1000
1000
0800
0400
0400
0200
0200
0100
0180
ENDCHAR
STARTCHAR LAngleBracket2
ENCODING 89
SWIDTH 600 0
DWIDTH 19 0
BBX 8 40 6 -13
BITMAP
03
02
02
06
04
04
04
08
08
08
10
10
10
20
20
20
60
40
40
c0
c0
40
40
60
20
20
20
10
10
10
08
08
08
04
04
04
06
02
02
03
ENDCHAR
STARTCHAR LAngleBracket3
ENCODING 90
SWIDTH 600 0
DWIDTH 19 0
BBX 8 54 6 -20
BITMAP
03
02
02
02
02
04
04
04
04
0c
08
08
08
18
10
10
10
30
20
20
20
20
40
40
40
40
c0
c0
40
40
40
40
20
20
20
20
30
10
10
10
18
08
08
08
0c
04
04
04
04
02
02
02
02
03
ENDCHAR
STARTCHAR LAngleBracket4
ENCODING 91
SWIDTH 600 0
DWIDTH 19 0
BBX 8 67 5 -26
BITMAP
01
03
02
02
02
02
06
04
04
04
04
0c
08
08
08
08
18
10
10
10
10
30
20
20
20
20
60
40
40
40
40
c0
80
80
80
40
40
40
40
40
20
20
20
20
20
30
10
10
10
10
18
08
08
08
08
0c
04
04
04
04
06
02
02
02
02
03
01
ENDCHAR
STARTCHAR RAngleBracket1
ENCODING 92
SWIDTH 600 0
DWIDTH 19 0
BBX 9 26 5 -6
BITMAP
c000
4000
2000
2000
1000
1000
0800
0400
0400
0200
0200
0100
0180
0180
0100
0200
0200
0400
0400
0800
1000
1000
2000
2000
4000
c000
ENDCHAR
STARTCHAR RAngleBracket2
ENCODING 93
SWIDTH 600 0
DWIDTH 19 0
BBX 8 40 6 -13
BITMAP
c0
40
40
60
20
20
20
10
10
10
08
08
08
04
04
04
06
02
02
03
03
02
02
06
04
04
04
08
08
08
10
10
10
20
20
20
60
40
40
c0
ENDCHAR
STARTCHAR RAngleBracket3
ENCODING 94
SWIDTH 600 0
DWIDTH 19 0
BBX 8 54 6 -20
BITMAP
c0
40
40
40
40
20
20
20
20
30
10
10
10
18
08
08
08
0c
04
04
04
04
02
02
02
02
03
03
02
02
02
02
04
04
04
04
0c
08
08
08
18
10
10
10
30
20
20
20
20
40
40
40
40
c0
ENDCHAR
STARTCHAR RAngleBracket4
ENCODING 95
SWIDTH 600 0
DWIDTH 19 0
BBX 8 67 5 -26
BITMAP
80
c0
40
40
40
40
60
20
20
20
20
30
10
10
10
10
18
08
08
08
08
0c
04
04
04
04
06
02
02
02
02
02
01
01
01
02
02
02
02
02
06
04
04
04
04
0c
08
08
08
08
18
10
10
10
10
30
20
20
20
20
60
40
40
40
40
c0
80
ENDCHAR
STARTCHAR LCeiling1
ENCODING 96
SWIDTH 600 0
DWIDTH 19 0
BBX 7 26 8 -6
BITMAP
fe
80
80
80
80
80
80
80
80
80
80
80
80
80
80
80
80
80
80
80
80
80
80
80
80
80
ENDCHAR
STARTCHAR LCeiling2
ENCODING 97
SWIDTH 600 0
DWIDTH 19 0
BBX 7 41 8 -12
BITMAP
fe
80
80
80
80
80
80
80
80
80
80
80
80
80
80
80
80
80
80
80
80
80
80
80
80
80
80
80
80
80
80
80
80
80
80
80
80
80
80
80
80
ENDCHAR
STARTCHAR LCeiling3
ENCODING 98
SWIDTH 600 0
DWIDTH 19 0
BBX 7 54 8 -19
BITMAP
fe
80
80
80
80
80
80
80
80
80
80
80
80
80
80
80
80
80
80
80
80
80
80
80
80
80
80
80
80
80
80
80
80
80
80
80
80
80
80
80
80
80
80
80
80
80
80
80
80
80
80
80
80
80
ENDCHAR
STARTCHAR LCeiling4
ENCODING 99
SWIDTH 600 0
DWIDTH 19 0
BBX 7 67 8 -25
BITMAP
fe
80
80
80
80
80
80
80
80
80
80
80
80
80
80
80
80
80
80
80
80
80
80
80
80
80
80
80
80
80
80
80
80
80
80
80
80
80
80
80
80
80
80
80
80
80
80
80
80
80
80
80
80
80
80
80
80
80
80
80
80
80
80
80
80
80
80
ENDCHAR
STARTCHAR LFloor1
ENCODING 100
SWIDTH 600 0
DWIDTH 19 0
BBX 7 26 8 -6
BITMAP
80
80
80
80
80
80
80
80
80
80
80
80
80
80
80
80
80
80
80
80
80
80
80
80
80
fe
ENDCHAR
STARTCHAR LFloor2
ENCODING 101
SWIDTH 600 0
DWIDTH 19 0
BBX 7 41 8 -12
BITMAP
80
80
80
80
80
80
80
80
80
80
80
80
80
80
80
80
80
80
80
80
80
80
80
80
80
80
80
80
80
80
80
80
80
80
80
80
80
80
80
80
fe
ENDCHAR
STARTCHAR LFloor3
ENCODING 102
SWIDTH 600 0
DWIDTH 19 0
BBX 7 54 8 -19
BITMAP
80
80
80
80
80
80
80
80
80
80
80
80
80
80
80
80
80
80
80
80
80
80
80
80
80
80
80
80
80
80
80
80
80
80
80
80
80
80
80
80
80
80
80
80
80
80
80
80
80
80
80
80
80
fe
ENDCHAR
STARTCHAR LFloor4
ENCODING 103
SWIDTH 600 0
DWIDTH 19 0
BBX 7 67 8 -25
BITMAP
80
80
80
80
80
80
80
80
80
80
80
80
80
80
80
80
80
80
80
80
80
80
80
80
80
80
80
80
80
80
80
80
80
80
80
80
80
80
80
80
80
80
80
80
80
80
80
80
80
80
80
80
80
80
80
80
80
80
80
80
80
80
80
80
80
80
fe
ENDCHAR
STARTCHAR LFlrClngExtens
ENCODING 104
SWIDTH 600 0
DWIDTH 19 0
BBX 1 10 8 0
BITMAP
80
80
80
80
80
80
80
80
80
80
ENDCHAR
STARTCHAR LParenTop
ENCODING 105
SWIDTH 600 0
DWIDTH 19 0
BBX 7 27 9 -2
BITMAP
06
04
08
08
10
10
20
20
20
40
40
40
40
40
40
80
80
80
80
80
80
80
80
80
80
80
80
ENDCHAR
STARTCHAR LParenExtens
ENCODING 106
SWIDTH 600 0
DWIDTH 19 0
BBX 1 10 9 0
BITMAP
80
80
80
80
80
80
80
80
80
80
ENDCHAR
STARTCHAR LParenBottom
ENCODING 107
SWIDTH 600 0
DWIDTH 19 0
BBX 7 27 9 0
BITMAP
80
80
80
80
80
80
80
80
80
80
80
80
40
40
40
40
40
20
20
20
20
10
10
08
08
04
06
ENDCHAR
STARTCHAR LBraceTop
ENCODING 108
SWIDTH 600 0
DWIDTH 19 0
BBX 9 22 9 -2
BITMAP
0780
1800
2000
4000
4000
8000
8000
8000
8000
8000
8000
8000
8000
8000
8000
8000
8000
8000
8000
8000
8000
8000
ENDCHAR
STARTCHAR LBraceMiddle
ENCODING 109
SWIDTH 600 0
DWIDTH 19 0
BBX 8 24 2 -5
BITMAP
01
01
01
01
01
01
03
02
06
04
18
e0
e0
18
04
06
02
03
01
01
01
01
01
01
ENDCHAR
STARTCHAR LBraceBottom
ENCODING 110
SWIDTH 600 0
DWIDTH 19 0
BBX 9 22 9 0
BITMAP
8000
8000
8000
8000
8000
8000
8000
8000
8000
8000
8000
8000
8000
8000
8000
8000
8000
4000
4000
2000
1800
0780
ENDCHAR
STARTCHAR BraceExtens
ENCODING 111
SWIDTH 600 0
DWIDTH 19 0
BBX 1 10 9 0
BITMAP
80
80
80
80
80
80
80
80
80
80
ENDCHAR
STARTCHAR RCeiling1
ENCODING 112
SWIDTH 600 0
DWIDTH 19 0
BBX 7 26 4 -6
BITMAP
fe
02
02
02
02
02
02
02
02
02
02
02
02
02
02
02
02
02
02
02
02
02
02
02
02
02
ENDCHAR
STARTCHAR RCeiling2
ENCODING 113
SWIDTH 600 0
DWIDTH 19 0
BBX 7 41 4 -12
BITMAP
fe
02
02
02
02
02
02
02
02
02
02
02
02
02
02
02
02
02
02
02
02
02
02
02
02
02
02
02
02
02
02
02
02
02
02
02
02
02
02
02
02
ENDCHAR
STARTCHAR RCeiling3
ENCODING 114
SWIDTH 600 0
DWIDTH 19 0
BBX 7 54 4 -19
BITMAP
fe
02
02
02
02
02
02
02
02
02
02
02
02
02
02
02
02
02
02
02
02
02
02
02
02
02
02
02
02
02
02
02
02
02
02
02
02
02
02
02
02
02
02
02
02
02
02
02
02
02
02
02
02
02
ENDCHAR
STARTCHAR RCeiling4
ENCODING 115
SWIDTH 600 0
DWIDTH 19 0
BBX 7 67 4 -25
BITMAP
fe
02
02
02
02
02
02
02
02
02
02
02
02
02
02
02
02
02
02
02
02
02
02
02
02
02
02
02
02
02
02
02
02
02
02
02
02
02
02
02
02
02
02
02
02
02
02
02
02
02
02
02
02
02
02
02
02
02
02
02
02
02
02
02
02
02
02
ENDCHAR
STARTCHAR RFloor1
ENCODING 116
SWIDTH 600 0
DWIDTH 19 0
BBX 7 25 4 -6
BITMAP
02
02
02
02
02
02
02
02
02
02
02
02
02
02
02
02
02
02
02
02
02
02
02
02
fe
ENDCHAR
STARTCHAR RFloor2
ENCODING 117
SWIDTH 600 0
DWIDTH 19 0
BBX 7 41 4 -12
BITMAP
02
02
02
02
02
02
02
02
02
02
02
02
02
02
02
02
02
02
02
02
02
02
02
02
02
02
02
02
02
02
02
02
02
02
02
02
02
02
02
02
fe
ENDCHAR
STARTCHAR RFloor3
ENCODING 118
SWIDTH 600 0
DWIDTH 19 0
BBX 7 54 4 -19
BITMAP
02
02
02
02
02
02
02
02
02
02
02
02
02
02
02
02
02
02
02
02
02
02
02
02
02
02
02
02
02
02
02
02
02
02
02
02
02
02
02
02
02
02
02
02
02
02
02
02
02
02
02
02
02
fe
ENDCHAR
STARTCHAR RFloor4
ENCODING 119
SWIDTH 600 0
DWIDTH 19 0
BBX 7 67 4 -25
BITMAP
02
02
02
02
02
02
02
02
02
02
02
02
02
02
02
02
02
02
02
02
02
02
02
02
02
02
02
02
02
02
02
02
02
02
02
02
02
02
02
02
02
02
02
02
02
02
02
02
02
02
02
02
02
02
02
02
02
02
02
02
02
02
02
02
02
02
fe
ENDCHAR
STARTCHAR RFlrClngExtens
ENCODING 120
SWIDTH 600 0
DWIDTH 19 0
BBX 1 10 10 0
BITMAP
80
80
80
80
80
80
80
80
80
80
ENDCHAR
STARTCHAR RParenTop
ENCODING 121
SWIDTH 600 0
DWIDTH 19 0
BBX 7 27 3 -2
BITMAP
c0
40
20
20
10
10
08
08
08
04
04
04
04
04
02
02
02
02
02
02
02
02
02
02
02
02
02
ENDCHAR
STARTCHAR RParenExtens
ENCODING 122
SWIDTH 600 0
DWIDTH 19 0
BBX 1 10 9 0
BITMAP
80
80
80
80
80
80
80
80
80
80
ENDCHAR
STARTCHAR RParenBottom
ENCODING 123
SWIDTH 600 0
DWIDTH 19 0
BBX 7 27 3 0
BITMAP
02
02
02
02
02
02
02
02
02
02
02
02
02
04
04
04
04
04
08
08
08
10
10
20
20
40
c0
ENDCHAR
STARTCHAR RBraceTop
ENCODING 124
SWIDTH 600 0
DWIDTH 19 0
BBX 8 22 2 -2
BITMAP
f0
18
04
02
02
01
01
01
01
01
01
01
01
01
01
01
01
01
01
01
01
01
ENDCHAR
STARTCHAR RBraceMiddle
ENCODING 125
SWIDTH 600 0
DWIDTH 19 0
BBX 8 24 9 -5
BITMAP
80
80
80
80
80
80
c0
40
40
20
18
07
07
18
20
60
40
c0
80
80
80
80
80
80
ENDCHAR
STARTCHAR RBraceBottom
ENCODING 126
SWIDTH 600 0
DWIDTH 19 0
BBX 8 22 2 0
BITMAP
01
01
01
01
01
01
01
01
01
01
01
01
01
01
01
01
01
02
02
04
18
f0
ENDCHAR
STARTCHAR LBracketTop
ENCODING 128
SWIDTH 600 0
DWIDTH 19 0
BBX 6 5 9 0
BITMAP
fc
80
80
80
80
ENDCHAR
STARTCHAR LBracketExtens
ENCODING 129
SWIDTH 600 0
DWIDTH 19 0
BBX 1 10 9 0
BITMAP
80
80
80
80
80
80
80
80
80
80
ENDCHAR
STARTCHAR LBracketBottom
ENCODING 130
SWIDTH 600 0
DWIDTH 19 0
BBX 6 5 9 0
BITMAP
80
80
80
80
fc
ENDCHAR
STARTCHAR RBracketTop
ENCODING 131
SWIDTH 600 0
DWIDTH 19 0
BBX 6 5 4 0
BITMAP
fc
04
04
04
04
ENDCHAR
STARTCHAR RBracketExtens
ENCODING 132
SWIDTH 600 0
DWIDTH 19 0
BBX 1 10 9 0
BITMAP
80
80
80
80
80
80
80
80
80
80
ENDCHAR
STARTCHAR RBracketBottom
ENCODING 133
SWIDTH 600 0
DWIDTH 19 0
BBX 6 5 4 0
BITMAP
04
04
04
04
fc
ENDCHAR
STARTCHAR DblLBracketBottom
ENCODING 134
SWIDTH 600 0
DWIDTH 19 0
BBX 9 5 7 0
BITMAP
8800
8800
8800
8800
ff80
ENDCHAR
STARTCHAR DblLBracketExtens
ENCODING 135
SWIDTH 600 0
DWIDTH 19 0
BBX 5 10 7 0
BITMAP
88
88
88
88
88
88
88
88
88
88
ENDCHAR
STARTCHAR DblLBracketTop
ENCODING 136
SWIDTH 600 0
DWIDTH 19 0
BBX 9 5 7 0
BITMAP
ff80
8800
8800
8800
8800
ENDCHAR
STARTCHAR DblRBracketBottom
ENCODING 137
SWIDTH 600 0
DWIDTH 19 0
BBX 9 5 3 0
BITMAP
0880
0880
0880
0880
ff80
ENDCHAR
STARTCHAR DblRBracketExtens
ENCODING 138
SWIDTH 600 0
DWIDTH 19 0
BBX 5 10 7 0
BITMAP
88
88
88
88
88
88
88
88
88
88
ENDCHAR
STARTCHAR DblRBracketTop
ENCODING 139
SWIDTH 600 0
DWIDTH 19 0
BBX 9 5 3 0
BITMAP
ff80
0880
0880
0880
0880
ENDCHAR
STARTCHAR LeftHook
ENCODING 140
SWIDTH 300 0
DWIDTH 10 0
BBX 10 23 0 0
BITMAP
ffc0
8000
8000
8000
8000
8000
8000
8000
8000
8000
8000
8000
8000
8000
8000
8000
8000
8000
8000
8000
8000
8000
8000
ENDCHAR
STARTCHAR HookExt
ENCODING 141
SWIDTH 300 0
DWIDTH 10 0
BBX 10 1 0 22
BITMAP
ffc0
ENDCHAR
STARTCHAR RightHook
ENCODING 142
SWIDTH 300 0
DWIDTH 10 0
BBX 10 23 0 0
BITMAP
ffc0
0040
0040
0040
0040
0040
0040
0040
0040
0040
0040
0040
0040
0040
0040
0040
0040
0040
0040
0040
0040
0040
0040
ENDCHAR
STARTCHAR Radical1
ENCODING 143
SWIDTH 819 0
DWIDTH 26 0
BBX 25 34 2 -22
BITMAP
00000380
00000200
00000600
00000400
00000400
00000c00
00000800
00000800
00000800
00001800
00001000
00001000
00003000
00002000
00002000
0c006000
3c004000
e6004000
02004000
0300c000
01008000
01808000
00818000
00c10000
00410000
00630000
00220000
00320000
00120000
00160000
000c0000
000c0000
000c0000
00040000
ENDCHAR
STARTCHAR Slash1
ENCODING 144
SWIDTH 600 0
DWIDTH 19 0
BBX 12 23 4 -3
BITMAP
0030
0020
0020
0040
0040
0080
0080
0100
0100
0300
0200
0600
0400
0c00
0800
0800
1000
1000
2000
2000
4000
4000
c000
ENDCHAR
STARTCHAR Slash2
ENCODING 145
SWIDTH 600 0
DWIDTH 19 0
BBX 20 40 0 -12
BITMAP
000030
000020
000020
000040
000040
000080
000080
000100
000100
000300
000200
000600
000400
000c00
000800
001800
001000
001000
002000
002000
004000
004000
008000
008000
018000
010000
030000
020000
060000
040000
0c0000
080000
080000
100000
100000
200000
200000
400000
400000
c00000
ENDCHAR
STARTCHAR Slash3
ENCODING 146
SWIDTH 600 0
DWIDTH 19 0
BBX 26 54 -3 -19
BITMAP
00000040
00000080
00000080
00000100
00000100
00000200
00000200
00000600
00000400
00000c00
00000800
00000800
00001000
00001000
00002000
00002000
00004000
00004000
0000c000
00008000
00018000
00010000
00030000
00020000
00020000
00040000
00040000
00080000
00080000
00100000
00100000
00300000
00200000
00600000
00400000
00400000
00800000
00800000
01000000
01000000
02000000
02000000
04000000
04000000
0c000000
08000000
18000000
10000000
10000000
20000000
20000000
40000000
40000000
80000000
ENDCHAR
STARTCHAR Slash4
ENCODING 147
SWIDTH 600 0
DWIDTH 19 0
BBX 32 67 -6 -25
BITMAP
00000001
00000002
00000002
00000004
00000004
00000008
00000008
00000018
00000010
00000030
00000020
00000060
00000040
00000040
00000080
00000080
00000100
00000100
00000200
00000200
00000600
00000400
00000c00
00000800
00000800
00001000
00001000
00002000
00002000
00004000
00004000
0000c000
00008000
00018000
00010000
00030000
00020000
00020000
00040000
00040000
00080000
00080000
00100000
00100000
00300000
00200000
00600000
00400000
00400000
00800000
00800000
01000000
01000000
02000000
02000000
06000000
04000000
0c000000
08000000
18000000
10000000
10000000
20000000
20000000
40000000
40000000
80000000
ENDCHAR
STARTCHAR BackSlash1
ENCODING 148
SWIDTH 600 0
DWIDTH 19 0
BBX 12 23 4 -3
BITMAP
c000
4000
4000
2000
2000
1000
1000
0800
0800
0c00
0400
0600
0200
0300
0100
0100
0080
0080
0040
0040
0020
0020
0030
ENDCHAR
STARTCHAR BackSlash2
ENCODING 149
SWIDTH 600 0
DWIDTH 19 0
BBX 20 40 0 -12
BITMAP
800000
400000
400000
200000
200000
100000
100000
080000
080000
0c0000
040000
060000
020000
030000
010000
018000
008000
008000
004000
004000
002000
002000
001000
001000
001800
000800
000c00
000400
000600
000200
000300
000100
000100
000080
000080
000040
000040
000020
000020
000010
ENDCHAR
STARTCHAR BackSlash3
ENCODING 150
SWIDTH 600 0
DWIDTH 19 0
BBX 26 54 -3 -19
BITMAP
80000000
40000000
40000000
20000000
20000000
10000000
10000000
18000000
08000000
0c000000
04000000
04000000
02000000
02000000
01000000
01000000
00800000
00800000
00400000
00400000
00600000
00200000
00300000
00100000
00100000
00080000
00080000
00040000
00040000
00020000
00020000
00030000
00010000
00018000
00008000
0000c000
00004000
00004000
00002000
00002000
00001000
00001000
00000800
00000800
00000c00
00000400
00000600
00000200
00000200
00000100
00000100
00000080
00000080
00000040
ENDCHAR
STARTCHAR BackSlash4
ENCODING 151
SWIDTH 600 0
DWIDTH 19 0
BBX 32 67 -6 -25
BITMAP
80000000
40000000
40000000
20000000
20000000
10000000
10000000
18000000
08000000
0c000000
04000000
06000000
02000000
02000000
01000000
01000000
00800000
00800000
00400000
00400000
00600000
00200000
00300000
00100000
00100000
00080000
00080000
00040000
00040000
00020000
00020000
00030000
00010000
00018000
00008000
0000c000
00004000
00004000
00002000
00002000
00001000
00001000
00000800
00000800
00000c00
00000400
00000600
00000200
00000200
00000100
00000100
00000080
00000080
00000040
00000040
00000060
00000020
00000030
00000010
00000018
00000008
00000008
00000004
00000004
00000002
00000002
00000001
ENDCHAR
STARTCHAR ContourIntegral
ENCODING 152
SWIDTH 386 0
DWIDTH 12 0
BBX 17 40 1 -10
BITMAP
001e00
002180
004080
004000
008000
008000
008000
008000
008000
008000
008000
008000
03f000
0c9800
308600
208200
408100
408100
808080
808080
808080
808080
808080
408100
408100
208200
188c00
0ff800
008000
008000
008000
008000
008000
008000
008000
008000
010000
410000
c20000
3c0000
ENDCHAR
STARTCHAR DblContInteg
ENCODING 153
SWIDTH 598 0
DWIDTH 19 0
BBX 24 41 1 -10
BITMAP
001e3c
002043
004081
004080
008100
008100
008100
008100
008100
008100
008100
008100
008100
03ffc0
0c8130
30810c
208106
408102
c08103
808101
808101
808101
808101
c08103
408102
608106
30810c
0c8138
03ffe0
008100
008100
008100
008100
008100
008100
008100
008100
010200
410200
c20400
3c7800
ENDCHAR
STARTCHAR CntrClckwContInteg
ENCODING 154
SWIDTH 386 0
DWIDTH 12 0
BBX 20 40 1 -10
BITMAP
001e00
002180
004080
004000
008000
008000
008000
008000
008000
008000
008000
008000
03e000
0c9800
308600
208300
408100
c08180
808080
808080
8081c0
8086a0
808490
408100
608100
208200
188c00
07f800
008000
008000
008000
008000
008000
008000
008000
008000
010000
410000
c20000
3c0000
ENDCHAR
STARTCHAR ClckwContInteg
ENCODING 155
SWIDTH 478 0
DWIDTH 15 0
BBX 20 40 1 -10
BITMAP
0003c0
000430
000800
000800
001000
001000
001000
001000
001000
001000
001000
001000
00fe00
031180
0610c0
0c1060
081020
101010
101010
181010
7c1010
d21010
181030
081020
0c1060
0610c0
019380
007e00
001000
001000
001000
001000
001000
001000
001000
001000
002000
082000
18c000
078000
ENDCHAR
STARTCHAR SquareContInteg
ENCODING 156
SWIDTH 375 0
DWIDTH 12 0
BBX 17 40 1 -10
BITMAP
001e00
002180
004080
004000
008000
008000
008000
008000
008000
008000
008000
008000
ffff80
808080
808080
808080
808080
808080
808080
808080
808080
808080
808080
808080
808080
808080
808080
ffff80
008000
008000
008000
008000
008000
008000
008000
008000
010000
410000
c60000
3c0000
ENDCHAR
STARTCHAR UnionPlus
ENCODING 157
SWIDTH 704 0
DWIDTH 23 0
BBX 20 29 1 -7
BITMAP
800010
800010
800010
800010
800010
800010
800010
800010
800010
800010
800010
800010
802010
802010
802010
802010
802010
87ff10
802010
802010
802010
802010
402020
400020
200040
1000c0
0c0180
070600
00f800
ENDCHAR
STARTCHAR SquareIntersection
ENCODING 158
SWIDTH 704 0
DWIDTH 23 0
BBX 20 28 1 -6
BITMAP
fffff0
800010
800010
800010
800010
800010
800010
800010
800010
800010
800010
800010
800010
800010
800010
800010
800010
800010
800010
800010
800010
800010
800010
800010
800010
800010
800010
800010
ENDCHAR
STARTCHAR SquareUnion
ENCODING 159
SWIDTH 704 0
DWIDTH 23 0
BBX 20 28 1 -6
BITMAP
800010
800010
800010
800010
800010
800010
800010
800010
800010
800010
800010
800010
800010
800010
800010
800010
800010
800010
800010
800010
800010
800010
800010
800010
800010
800010
800010
fffff0
ENDCHAR
STARTCHAR LBracketBar1
ENCODING 160
SWIDTH 600 0
DWIDTH 19 0
BBX 3 26 7 -6
BITMAP
20
20
20
20
20
20
20
20
20
20
20
20
20
e0
20
20
20
20
20
20
20
20
20
20
20
20
ENDCHAR
STARTCHAR LBracketBar2
ENCODING 161
SWIDTH 600 0
DWIDTH 19 0
BBX 3 40 7 -13
BITMAP
20
20
20
20
20
20
20
20
20
20
20
20
20
20
20
20
20
20
20
20
e0
20
20
20
20
20
20
20
20
20
20
20
20
20
20
20
20
20
20
20
ENDCHAR
STARTCHAR LBracketBar3
ENCODING 162
SWIDTH 600 0
DWIDTH 19 0
BBX 3 54 7 -20
BITMAP
20
20
20
20
20
20
20
20
20
20
20
20
20
20
20
20
20
20
20
20
20
20
20
20
20
20
20
e0
20
20
20
20
20
20
20
20
20
20
20
20
20
20
20
20
20
20
20
20
20
20
20
20
20
20
ENDCHAR
STARTCHAR LBracketBar4
ENCODING 163
SWIDTH 600 0
DWIDTH 19 0
BBX 3 67 7 -26
BITMAP
20
20
20
20
20
20
20
20
20
20
20
20
20
20
20
20
20
20
20
20
20
20
20
20
20
20
20
20
20
20
20
20
20
20
e0
20
20
20
20
20
20
20
20
20
20
20
20
20
20
20
20
20
20
20
20
20
20
20
20
20
20
20
20
20
20
20
20
ENDCHAR
STARTCHAR RBracketBar1
ENCODING 164
SWIDTH 600 0
DWIDTH 19 0
BBX 3 26 9 -6
BITMAP
80
80
80
80
80
80
80
80
80
80
80
80
80
e0
80
80
80
80
80
80
80
80
80
80
80
80
ENDCHAR
STARTCHAR RBracketBar2
ENCODING 165
SWIDTH 600 0
DWIDTH 19 0
BBX 3 40 9 -13
BITMAP
80
80
80
80
80
80
80
80
80
80
80
80
80
80
80
80
80
80
80
80
e0
80
80
80
80
80
80
80
80
80
80
80
80
80
80
80
80
80
80
80
ENDCHAR
STARTCHAR RBracketBar3
ENCODING 166
SWIDTH 600 0
DWIDTH 19 0
BBX 3 54 9 -20
BITMAP
80
80
80
80
80
80
80
80
80
80
80
80
80
80
80
80
80
80
80
80
80
80
80
80
80
80
80
e0
80
80
80
80
80
80
80
80
80
80
80
80
80
80
80
80
80
80
80
80
80
80
80
80
80
80
ENDCHAR
STARTCHAR RBracketBar4
ENCODING 167
SWIDTH 600 0
DWIDTH 19 0
BBX 3 67 9 -26
BITMAP
80
80
80
80
80
80
80
80
80
80
80
80
80
80
80
80
80
80
80
80
80
80
80
80
80
80
80
80
80
80
80
80
80
80
e0
80
80
80
80
80
80
80
80
80
80
80
80
80
80
80
80
80
80
80
80
80
80
80
80
80
80
80
80
80
80
80
80
ENDCHAR
STARTCHAR ContourIntegral2
ENCODING 168
SWIDTH 602 0
DWIDTH 19 0
BBX 29 70 1 -22
BITMAP
00001f80
00003060
00004010
00008000
00018000
00010000
00010000
00030000
00020000
00020000
00020000
00020000
00020000
00020000
00020000
00020000
00020000
00020000
00020000
00020000
00020000
00020000
003fe000
00e23800
03020600
06020100
08020080
10020040
20020020
20020020
40020010
40020010
80020008
80020008
80020008
80020008
80020008
80020008
80020008
40020010
40020010
40020010
20020020
30020060
180200c0
0c020180
06020300
01820e00
00fa7800
000f8000
00020000
00020000
00020000
00020000
00020000
00020000
00020000
00020000
00020000
00020000
00020000
00040000
00040000
00040000
000c0000
00080000
00180000
40300000
70600000
1f800000
ENDCHAR
STARTCHAR DblContInteg2
ENCODING 169
SWIDTH 972 0
DWIDTH 31 0
BBX 40 70 1 -22
BITMAP
00001f81f8
000030620c
0000402403
0000800800
0001801800
0001001000
0001001000
0001001000
0002002000
0002002000
0002002000
0002002000
0002002000
0002002000
0002002000
0002002000
0002002000
0002002000
0002002000
0002002000
0002002000
0002002000
001ffffc00
00e2002380
03020020c0
0602002020
0802002010
1002002008
3002002004
2002002004
4002002002
4002002002
c002002001
8002002001
8002002001
8002002001
8002002001
8002002001
8002002001
c002002001
4002002002
4002002002
2002002006
3002002004
1002002008
0802002010
0602002030
03020020c0
00e2002380
001ffffc00
0002002000
0002002000
0002002000
0002002000
0002002000
0002002000
0002002000
0002002000
0002002000
0002002000
0002002000
0006006000
0004004000
0004004000
000c00c000
0008008000
0018018000
4032030000
7063060000
1f80f80000
ENDCHAR
STARTCHAR CntrClckwContInteg2
ENCODING 170
SWIDTH 602 0
DWIDTH 19 0
BBX 33 70 1 -22
BITMAP
00001f0000
000060c000
0000402000
0000800000
0001800000
0001000000
0001000000
0003000000
0002000000
0002000000
0002000000
0002000000
0002000000
0002000000
0002000000
0002000000
0002000000
0002000000
0002000000
0002000000
0002000000
0002000000
001fc00000
00e2380000
03020c0000
0602030000
0802018000
1002008000
2002004000
2002006000
4002002000
4002002000
8002001000
8002001000
8002001000
8002001800
8002007c00
800200d200
8002011100
4002023080
4002002000
4002002000
2002004000
3002004000
1802008000
0c02010000
0602060000
01820c0000
00f2f00000
000f800000
0002000000
0002000000
0002000000
0002000000
0002000000
0002000000
0002000000
0002000000
0002000000
0002000000
0002000000
0004000000
0004000000
0004000000
000c000000
0008000000
0018000000
4030000000
7060000000
1f80000000
ENDCHAR
STARTCHAR ClckwContInteg2
ENCODING 171
SWIDTH 761 0
DWIDTH 24 0
BBX 33 70 2 -22
BITMAP
000001f800
0000030600
0000040100
0000080000
0000080000
0000100000
0000100000
0000100000
0000200000
0000200000
0000200000
0000200000
0000200000
0000200000
0000200000
0000200000
0000200000
0000200000
0000200000
0000200000
0000200000
0000200000
0001fe0000
000e238000
0018206000
0020203000
0040200800
0080200400
0100200200
0300200200
0200200100
0200200100
0400200080
0400200080
0400200080
0e00200080
1f00200080
2580200080
4440200080
8620200100
0200200100
0200200100
0100200200
0100200600
0080200c00
0040201800
0030203000
001820e000
0007a78000
0000f80000
0000200000
0000200000
0000200000
0000200000
0000200000
0000200000
0000200000
0000200000
0000200000
0000200000
0000200000
0000600000
0000400000
0000400000
0000400000
0000800000
0001800000
0203000000
0306000000
00f8000000
ENDCHAR
STARTCHAR SquareContInteg2
ENCODING 172
SWIDTH 595 0
DWIDTH 19 0
BBX 28 70 1 -22
BITMAP
00001f80
000060e0
00004030
00008000
00018000
00010000
00010000
00030000
00020000
00020000
00020000
00020000
00020000
00020000
00020000
00020000
00020000
00020000
00020000
00020000
00020000
fffffff0
80020010
80020010
80020010
80020010
80020010
80020010
80020010
80020010
80020010
80020010
80020010
80020010
80020010
80020010
80020010
80020010
80020010
80020010
80020010
80020010
80020010
80020010
80020010
80020010
80020010
80020010
fffffff0
00020000
00020000
00020000
00020000
00020000
00020000
00020000
00020000
00020000
00020000
00020000
00020000
00040000
00040000
00040000
000c0000
00080000
00180000
c0300000
70600000
1f800000
ENDCHAR
STARTCHAR UnionPlus2
ENCODING 173
SWIDTH 1145 0
DWIDTH 37 0
BBX 34 50 1 -17
BITMAP
8000000040
8000000040
8000000040
8000000040
8000000040
8000000040
8000000040
8000000040
8000000040
8000000040
8000000040
8000000040
8000000040
8000000040
8000000040
8000000040
8000000040
8000000040
8000000040
8000000040
8000000040
8000400040
8000400040
8000400040
8000400040
8000400040
8000400040
8000400040
8000400040
8000400040
81ffffe040
8000400040
8000400040
8000400040
8000400040
8000400040
8000400040
c000400040
4000400080
4000400080
6000400080
2000000100
1000000300
1800000200
0c00000400
0600000800
0300003000
00c000e000
0038038000
0007fc0000
ENDCHAR
STARTCHAR SquareIntersection2
ENCODING 174
SWIDTH 1146 0
DWIDTH 37 0
BBX 34 49 1 -16
BITMAP
ffffffffc0
8000000040
8000000040
8000000040
8000000040
8000000040
8000000040
8000000040
8000000040
8000000040
8000000040
8000000040
8000000040
8000000040
8000000040
8000000040
8000000040
8000000040
8000000040
8000000040
8000000040
8000000040
8000000040
8000000040
8000000040
8000000040
8000000040
8000000040
8000000040
8000000040
8000000040
8000000040
8000000040
8000000040
8000000040
8000000040
8000000040
8000000040
8000000040
8000000040
8000000040
8000000040
8000000040
8000000040
8000000040
8000000040
8000000040
8000000040
8000000040
ENDCHAR
STARTCHAR SquareUnion2
ENCODING 175
SWIDTH 1146 0
DWIDTH 37 0
BBX 34 49 1 -16
BITMAP
8000000040
8000000040
8000000040
8000000040
8000000040
8000000040
8000000040
8000000040
8000000040
8000000040
8000000040
8000000040
8000000040
8000000040
8000000040
8000000040
8000000040
8000000040
8000000040
8000000040
8000000040
8000000040
8000000040
8000000040
8000000040
8000000040
8000000040
8000000040
8000000040
8000000040
8000000040
8000000040
8000000040
8000000040
8000000040
8000000040
8000000040
8000000040
8000000040
8000000040
8000000040
8000000040
8000000040
8000000040
8000000040
8000000040
8000000040
8000000040
ffffffffc0
ENDCHAR
STARTCHAR DblLBracketBar1
ENCODING 176
SWIDTH 600 0
DWIDTH 19 0
BBX 9 26 4 -6
BITMAP
2080
2080
2080
2080
2080
2080
2080
2080
2080
2080
2080
2080
2080
e080
2080
2080
2080
2080
2080
2080
2080
2080
2080
2080
2080
2080
ENDCHAR
STARTCHAR DblLBracketBar2
ENCODING 177
SWIDTH 600 0
DWIDTH 19 0
BBX 9 40 4 -13
BITMAP
2080
2080
2080
2080
2080
2080
2080
2080
2080
2080
2080
2080
2080
2080
2080
2080
2080
2080
2080
2080
e080
2080
2080
2080
2080
2080
2080
2080
2080
2080
2080
2080
2080
2080
2080
2080
2080
2080
2080
2080
ENDCHAR
STARTCHAR DblLBracketBar3
ENCODING 178
SWIDTH 600 0
DWIDTH 19 0
BBX 9 54 4 -20
BITMAP
2080
2080
2080
2080
2080
2080
2080
2080
2080
2080
2080
2080
2080
2080
2080
2080
2080
2080
2080
2080
2080
2080
2080
2080
2080
2080
2080
e080
2080
2080
2080
2080
2080
2080
2080
2080
2080
2080
2080
2080
2080
2080
2080
2080
2080
2080
2080
2080
2080
2080
2080
2080
2080
2080
ENDCHAR
STARTCHAR DblLBracketBar4
ENCODING 179
SWIDTH 600 0
DWIDTH 19 0
BBX 9 67 4 -26
BITMAP
2080
2080
2080
2080
2080
2080
2080
2080
2080
2080
2080
2080
2080
2080
2080
2080
2080
2080
2080
2080
2080
2080
2080
2080
2080
2080
2080
2080
2080
2080
2080
2080
2080
2080
e080
2080
2080
2080
2080
2080
2080
2080
2080
2080
2080
2080
2080
2080
2080
2080
2080
2080
2080
2080
2080
2080
2080
2080
2080
2080
2080
2080
2080
2080
2080
2080
2080
ENDCHAR
STARTCHAR DblRBracketBar1
ENCODING 180
SWIDTH 600 0
DWIDTH 19 0
BBX 9 26 6 -6
BITMAP
8200
8200
8200
8200
8200
8200
8200
8200
8200
8200
8200
8200
8200
8380
8200
8200
8200
8200
8200
8200
8200
8200
8200
8200
8200
8200
ENDCHAR
STARTCHAR DblRBracketBar2
ENCODING 181
SWIDTH 600 0
DWIDTH 19 0
BBX 9 40 6 -13
BITMAP
8200
8200
8200
8200
8200
8200
8200
8200
8200
8200
8200
8200
8200
8200
8200
8200
8200
8200
8200
8200
8380
8200
8200
8200
8200
8200
8200
8200
8200
8200
8200
8200
8200
8200
8200
8200
8200
8200
8200
8200
ENDCHAR
STARTCHAR DblRBracketBar3
ENCODING 182
SWIDTH 600 0
DWIDTH 19 0
BBX 9 54 6 -20
BITMAP
8200
8200
8200
8200
8200
8200
8200
8200
8200
8200
8200
8200
8200
8200
8200
8200
8200
8200
8200
8200
8200
8200
8200
8200
8200
8200
8200
8380
8200
8200
8200
8200
8200
8200
8200
8200
8200
8200
8200
8200
8200
8200
8200
8200
8200
8200
8200
8200
8200
8200
8200
8200
8200
8200
ENDCHAR
STARTCHAR DblRBracketBar4
ENCODING 183
SWIDTH 600 0
DWIDTH 19 0
BBX 9 67 6 -26
BITMAP
8200
8200
8200
8200
8200
8200
8200
8200
8200
8200
8200
8200
8200
8200
8200
8200
8200
8200
8200
8200
8200
8200
8200
8200
8200
8200
8200
8200
8200
8200
8200
8200
8200
8200
8380
8200
8200
8200
8200
8200
8200
8200
8200
8200
8200
8200
8200
8200
8200
8200
8200
8200
8200
8200
8200
8200
8200
8200
8200
8200
8200
8200
8200
8200
8200
8200
8200
ENDCHAR
STARTCHAR ContourIntegral3
ENCODING 184
SWIDTH 854 0
DWIDTH 27 0
BBX 42 106 1 -35
BITMAP
00000003f000
0000000c0c00
000000300300
000000600180
000000400080
000000800000
000000800000
000001000000
000001000000
000002000000
000002000000
000002000000
000002000000
000006000000
000004000000
000004000000
000004000000
000004000000
000004000000
000004000000
000004000000
000004000000
000004000000
000004000000
000004000000
000004000000
000004000000
000004000000
000004000000
000004000000
000004000000
000004000000
000004000000
000004000000
0000ffe00000
0007043c0000
001804070000
006004018000
00c004006000
010004003000
020004001800
040004000800
080004000400
180004000200
100004000200
200004000100
200004000100
400004000080
400004000080
400004000080
800004000040
800004000040
800004000040
800004000040
800004000040
800004000040
800004000040
800004000040
800004000040
400004000080
400004000080
400004000080
600004000180
200004000100
300004000100
100004000200
080004000600
0c0004000c00
060004000800
030004001000
018004006000
00c00400c000
003004038000
000e040e0000
0003e4f80000
00003f800000
000004000000
000004000000
000004000000
000004000000
000004000000
000004000000
000004000000
000004000000
000004000000
000004000000
000004000000
000004000000
000004000000
000004000000
000004000000
000004000000
000008000000
000008000000
000008000000
000008000000
000018000000
000010000000
000010000000
000020000000
000060000000
200040000000
600080000000
300300000000
1c0e00000000
03f800000000
ENDCHAR
STARTCHAR DblContInteg3
ENCODING 185
SWIDTH 1415 0
DWIDTH 45 0
BBX 60 106 1 -35
BITMAP
00000003f800fc00
0000000c0e030300
00000030030c00c0
0000002000980060
0000004000100020
0000008000200000
0000008000200000
0000010000400000
0000010000400000
0000030000c00000
0000020000800000
0000020000800000
0000020000800000
0000020001800000
0000040001000000
0000040001000000
0000040001000000
0000040001000000
0000040001000000
0000040001000000
0000040001000000
0000040001000000
0000040001000000
0000040001000000
0000040001000000
0000040001000000
0000040001000000
0000040001000000
0000040001000000
0000040001000000
0000040001000000
0000040001000000
0000040001000000
0000040001000000
00007ffffff00000
00078400010e0000
001c040001018000
0070040001006000
00c0040001001000
0100040001000c00
0200040001000600
0400040001000200
0800040001000100
1800040001000080
1000040001000080
2000040001000040
2000040001000040
4000040001000020
4000040001000020
4000040001000020
8000040001000010
8000040001000010
8000040001000010
8000040001000010
8000040001000010
8000040001000010
8000040001000010
8000040001000010
8000040001000010
4000040001000020
4000040001000020
4000040001000020
2000040001000040
2000040001000040
1000040001000080
1800040001000080
0800040001000100
0400040001000200
0200040001000600
0100040001000c00
00c0040001001000
0060040001006000
001c040001018000
00078400010e0000
00007ffffff00000
0000040001000000
0000040001000000
0000040001000000
0000040001000000
0000040001000000
0000040001000000
0000040001000000
0000040001000000
0000040001000000
0000040001000000
0000040001000000
0000040001000000
0000040001000000
0000040001000000
0000040001000000
0000040001000000
0000040001000000
0000080002000000
0000080002000000
0000080002000000
0000080002000000
0000100004000000
0000100004000000
000030000c000000
0000200008000000
0000600018000000
4000c00010000000
6000800020000000
30030600c0000000
1c0e030380000000
03f000fe00000000
ENDCHAR
STARTCHAR CntrClckwContInteg3
ENCODING 186
SWIDTH 854 0
DWIDTH 27 0
BBX 50 106 1 -35
BITMAP
00000003f00000
0000000c0c0000
00000030030000
00000060018000
00000040008000
00000080000000
00000080000000
00000100000000
00000100000000
00000300000000
00000200000000
00000200000000
00000200000000
00000600000000
00000400000000
00000400000000
00000400000000
00000400000000
00000400000000
00000400000000
00000400000000
00000400000000
00000400000000
00000400000000
00000400000000
00000400000000
00000400000000
00000400000000
00000400000000
00000400000000
00000400000000
00000400000000
00000400000000
00000400000000
00007fc0000000
00078438000000
001c0406000000
00600401800000
00c00400600000
01000400300000
02000400180000
040004000c0000
08000400040000
18000400020000
10000400030000
20000400010000
20000400010000
40000400008000
40000400008000
40000400008000
80000400004000
80000400004000
80000400004000
80000400004000
8000040000e000
8000040001f000
80000400024800
800004000c4600
80000400184300
40000400208080
40000400408040
40000400008000
20000400010000
20000400010000
10000400030000
18000400020000
08000400040000
040004000c0000
02000400180000
01000400300000
00c00400600000
00600401800000
001c0407000000
00078438000000
00007fc0000000
00000400000000
00000400000000
00000400000000
00000400000000
00000400000000
00000400000000
00000400000000
00000400000000
00000400000000
00000400000000
00000400000000
00000400000000
00000400000000
00000400000000
00000400000000
00000400000000
00000400000000
00000800000000
00000800000000
00000800000000
00000800000000
00001000000000
00001000000000
00003000000000
00002000000000
00006000000000
40004000000000
60008000000000
30030000000000
1c0e0000000000
03f80000000000
ENDCHAR
STARTCHAR ClckwContInteg3
ENCODING 187
SWIDTH 1098 0
DWIDTH 35 0
BBX 50 106 1 -35
BITMAP
0000000003f000
000000000c0c00
00000000300300
00000000600180
00000000400080
00000000800000
00000000800000
00000001000000
00000001000000
00000002000000
00000002000000
00000002000000
00000002000000
00000006000000
00000004000000
00000004000000
00000004000000
00000004000000
00000004000000
00000004000000
00000004000000
00000004000000
00000004000000
00000004000000
00000004000000
00000004000000
00000004000000
00000004000000
00000004000000
00000004000000
00000004000000
00000004000000
00000004000000
00000004000000
0000007fc00000
00000784380000
00001c04060000
00006004018000
0000c004004000
00010004003000
00020004001800
00040004000800
00080004000400
00180004000200
00100004000200
00200004000100
00200004000100
00400004000080
00400004000080
00400004000080
00800004000040
00800004000040
00800004000040
00800004000040
01c00004000040
03a00004000040
04980004000040
188c0004000040
30820004000040
40410004000080
80408004000080
00400004000080
00200004000100
00200004000100
00100004000200
00180004000200
00080004000400
00040004000800
00020004001800
00010004003000
0000c004004000
00006004018000
00001c04060000
00000784380000
0000007fc00000
00000004000000
00000004000000
00000004000000
00000004000000
00000004000000
00000004000000
00000004000000
00000004000000
00000004000000
00000004000000
00000004000000
00000004000000
00000004000000
00000004000000
00000004000000
00000004000000
00000004000000
00000008000000
00000008000000
00000008000000
00000008000000
00000010000000
00000010000000
00000030000000
00000020000000
00000060000000
00400040000000
00600080000000
00300300000000
001c0e00000000
0003f800000000
ENDCHAR
STARTCHAR SquareContInteg3
ENCODING 188
SWIDTH 843 0
DWIDTH 27 0
BBX 42 106 1 -35
BITMAP
00000007f000
000000180c00
000000200300
000000400180
000000800080
000001000000
000001000000
000002000000
000002000000
000006000000
000004000000
000004000000
000004000000
000004000000
000008000000
000008000000
000008000000
000008000000
000008000000
000008000000
000008000000
000008000000
000008000000
000008000000
000008000000
000008000000
000008000000
000008000000
000008000000
000008000000
000008000000
000008000000
000008000000
ffffffffffc0
800008000040
800008000040
800008000040
800008000040
800008000040
800008000040
800008000040
800008000040
800008000040
800008000040
800008000040
800008000040
800008000040
800008000040
800008000040
800008000040
800008000040
800008000040
800008000040
800008000040
800008000040
800008000040
800008000040
800008000040
800008000040
800008000040
800008000040
800008000040
800008000040
800008000040
800008000040
800008000040
800008000040
800008000040
800008000040
800008000040
800008000040
800008000040
800008000040
ffffffffffc0
000008000000
000008000000
000008000000
000008000000
000008000000
000008000000
000008000000
000008000000
000008000000
000008000000
000008000000
000008000000
000008000000
000008000000
000008000000
000008000000
000008000000
000008000000
000010000000
000010000000
000010000000
000010000000
000020000000
000020000000
000020000000
000040000000
0000c0000000
400080000000
400100000000
200200000000
180c00000000
07f000000000
ENDCHAR
STARTCHAR UnionPlus3
ENCODING 189
SWIDTH 1677 0
DWIDTH 54 0
BBX 51 75 1 -27
BITMAP
80000000000020
80000000000020
80000000000020
80000000000020
80000000000020
80000000000020
80000000000020
80000000000020
80000000000020
80000000000020
80000000000020
80000000000020
80000000000020
80000000000020
80000000000020
80000000000020
80000000000020
80000000000020
80000000000020
80000000000020
80000000000020
80000000000020
80000000000020
80000000000020
80000000000020
80000000000020
80000000000020
80000000000020
80000000000020
80000000000020
80000000000020
80000000000020
80000000000020
80000040000020
80000040000020
80000040000020
80000040000020
80000040000020
80000040000020
80000040000020
80000040000020
80000040000020
80000040000020
80000040000020
80000040000020
80000040000020
80000040000020
801fffffff0020
80000040000020
80000040000020
80000040000020
80000040000020
80000040000020
80000040000020
80000040000020
80000040000020
40000040000060
40000040000040
40000040000040
40000040000040
20000040000080
20000000000080
10000000000100
18000000000100
08000000000200
04000000000600
06000000000c00
03000000001800
01800000003000
00400000006000
00300000018000
000c0000070000
000700001c0000
0000f001e00000
00000ffe000000
ENDCHAR
STARTCHAR SquareIntersection3
ENCODING 190
SWIDTH 1676 0
DWIDTH 54 0
BBX 51 74 1 -26
BITMAP
ffffffffffffe0
80000000000020
80000000000020
80000000000020
80000000000020
80000000000020
80000000000020
80000000000020
80000000000020
80000000000020
80000000000020
80000000000020
80000000000020
80000000000020
80000000000020
80000000000020
80000000000020
80000000000020
80000000000020
80000000000020
80000000000020
80000000000020
80000000000020
80000000000020
80000000000020
80000000000020
80000000000020
80000000000020
80000000000020
80000000000020
80000000000020
80000000000020
80000000000020
80000000000020
80000000000020
80000000000020
80000000000020
80000000000020
80000000000020
80000000000020
80000000000020
80000000000020
80000000000020
80000000000020
80000000000020
80000000000020
80000000000020
80000000000020
80000000000020
80000000000020
80000000000020
80000000000020
80000000000020
80000000000020
80000000000020
80000000000020
80000000000020
80000000000020
80000000000020
80000000000020
80000000000020
80000000000020
80000000000020
80000000000020
80000000000020
80000000000020
80000000000020
80000000000020
80000000000020
80000000000020
80000000000020
80000000000020
80000000000020
80000000000020
ENDCHAR
STARTCHAR SquareUnion3
ENCODING 191
SWIDTH 1676 0
DWIDTH 54 0
BBX 51 74 1 -26
BITMAP
80000000000020
80000000000020
80000000000020
80000000000020
80000000000020
80000000000020
80000000000020
80000000000020
80000000000020
80000000000020
80000000000020
80000000000020
80000000000020
80000000000020
80000000000020
80000000000020
80000000000020
80000000000020
80000000000020
80000000000020
80000000000020
80000000000020
80000000000020
80000000000020
80000000000020
80000000000020
80000000000020
80000000000020
80000000000020
80000000000020
80000000000020
80000000000020
80000000000020
80000000000020
80000000000020
80000000000020
80000000000020
80000000000020
80000000000020
80000000000020
80000000000020
80000000000020
80000000000020
80000000000020
80000000000020
80000000000020
80000000000020
80000000000020
80000000000020
80000000000020
80000000000020
80000000000020
80000000000020
80000000000020
80000000000020
80000000000020
80000000000020
80000000000020
80000000000020
80000000000020
80000000000020
80000000000020
80000000000020
80000000000020
80000000000020
80000000000020
80000000000020
80000000000020
80000000000020
80000000000020
80000000000020
80000000000020
80000000000020
ffffffffffffe0
ENDCHAR
STARTCHAR DblBar1
ENCODING 192
SWIDTH 600 0
DWIDTH 19 0
BBX 7 26 6 -6
BITMAP
82
82
82
82
82
82
82
82
82
82
82
82
82
82
82
82
82
82
82
82
82
82
82
82
82
82
ENDCHAR
STARTCHAR DblBar2
ENCODING 193
SWIDTH 600 0
DWIDTH 19 0
BBX 7 40 6 -13
BITMAP
82
82
82
82
82
82
82
82
82
82
82
82
82
82
82
82
82
82
82
82
82
82
82
82
82
82
82
82
82
82
82
82
82
82
82
82
82
82
82
82
ENDCHAR
STARTCHAR DblBar3
ENCODING 194
SWIDTH 600 0
DWIDTH 19 0
BBX 7 54 6 -20
BITMAP
82
82
82
82
82
82
82
82
82
82
82
82
82
82
82
82
82
82
82
82
82
82
82
82
82
82
82
82
82
82
82
82
82
82
82
82
82
82
82
82
82
82
82
82
82
82
82
82
82
82
82
82
82
82
ENDCHAR
STARTCHAR DblBar4
ENCODING 195
SWIDTH 600 0
DWIDTH 19 0
BBX 7 67 6 -26
BITMAP
82
82
82
82
82
82
82
82
82
82
82
82
82
82
82
82
82
82
82
82
82
82
82
82
82
82
82
82
82
82
82
82
82
82
82
82
82
82
82
82
82
82
82
82
82
82
82
82
82
82
82
82
82
82
82
82
82
82
82
82
82
82
82
82
82
82
82
ENDCHAR
STARTCHAR BarExt
ENCODING 196
SWIDTH 600 0
DWIDTH 19 0
BBX 1 10 9 0
BITMAP
80
80
80
80
80
80
80
80
80
80
ENDCHAR
STARTCHAR DblBarExt
ENCODING 197
SWIDTH 600 0
DWIDTH 19 0
BBX 7 10 6 0
BITMAP
82
82
82
82
82
82
82
82
82
82
ENDCHAR
STARTCHAR OverCircle
ENCODING 198
SWIDTH 600 0
DWIDTH 19 0
BBX 7 7 6 0
BITMAP
38
44
82
82
82
44
38
ENDCHAR
STARTCHAR Hacek
ENCODING 199
SWIDTH 600 0
DWIDTH 19 0
BBX 11 5 4 1
BITMAP
c060
60c0
3180
1b00
0e00
ENDCHAR
STARTCHAR VertBar1
ENCODING 200
SWIDTH 600 0
DWIDTH 19 0
BBX 1 26 9 -6
BITMAP
80
80
80
80
80
80
80
80
80
80
80
80
80
80
80
80
80
80
80
80
80
80
80
80
80
80
ENDCHAR
STARTCHAR VertBar2
ENCODING 201
SWIDTH 600 0
DWIDTH 19 0
BBX 1 40 9 -13
BITMAP
80
80
80
80
80
80
80
80
80
80
80
80
80
80
80
80
80
80
80
80
80
80
80
80
80
80
80
80
80
80
80
80
80
80
80
80
80
80
80
80
ENDCHAR
STARTCHAR nbspace
ENCODING 202
SWIDTH 263 0
DWIDTH 8 0
BBX 0 0 0 0
BITMAP
ENDCHAR
STARTCHAR VertBar3
ENCODING 203
SWIDTH 600 0
DWIDTH 19 0
BBX 1 54 9 -20
BITMAP
80
80
80
80
80
80
80
80
80
80
80
80
80
80
80
80
80
80
80
80
80
80
80
80
80
80
80
80
80
80
80
80
80
80
80
80
80
80
80
80
80
80
80
80
80
80
80
80
80
80
80
80
80
80
ENDCHAR
STARTCHAR VertBar4
ENCODING 204
SWIDTH 600 0
DWIDTH 19 0
BBX 1 67 9 -26
BITMAP
80
80
80
80
80
80
80
80
80
80
80
80
80
80
80
80
80
80
80
80
80
80
80
80
80
80
80
80
80
80
80
80
80
80
80
80
80
80
80
80
80
80
80
80
80
80
80
80
80
80
80
80
80
80
80
80
80
80
80
80
80
80
80
80
80
80
80
ENDCHAR
STARTCHAR FIntegral
ENCODING 205
SWIDTH 374 0
DWIDTH 12 0
BBX 17 40 1 -10
BITMAP
001e00
002180
004080
004000
008000
008000
008000
008000
008000
008000
008000
008000
008000
008000
008000
008c00
00f000
018000
068000
188000
008000
008000
008000
008000
008000
008000
008000
008000
008000
008000
008000
008000
008000
008000
008000
008000
010000
410000
c20000
3c0000
ENDCHAR
STARTCHAR FIntegral2
ENCODING 206
SWIDTH 571 0
DWIDTH 18 0
BBX 27 70 1 -22
BITMAP
00003f00
000061c0
00008060
00010000
00030000
00020000
00020000
00020000
00040000
00040000
00040000
00040000
00040000
00040000
00040000
00040000
00040000
00040000
00040000
00040000
00040000
00040000
00040000
00040000
00040000
00040000
00040400
00041800
00046000
00058000
00060000
003c0000
00c40000
03040000
04040000
00040000
00040000
00040000
00040000
00040000
00040000
00040000
00040000
00040000
00040000
00040000
00040000
00040000
00040000
00040000
00040000
00040000
00040000
00040000
00040000
00040000
00040000
00040000
00040000
00040000
00040000
00080000
00080000
00080000
00080000
00100000
00300000
c0600000
60c00000
1f000000
ENDCHAR
STARTCHAR FIntegral3
ENCODING 207
SWIDTH 796 0
DWIDTH 25 0
BBX 40 106 1 -35
BITMAP
00000007e0
0000001818
0000006006
000000c003
0000008001
0000010000
0000010000
0000020000
0000020000
0000040000
0000040000
0000040000
0000040000
00000c0000
0000080000
0000080000
0000080000
0000080000
0000080000
0000080000
0000080000
0000080000
0000080000
0000080000
0000080000
0000080000
0000080000
0000080000
0000080000
0000080000
0000080000
0000080000
0000080000
0000080000
0000080000
0000080000
0000080000
0000080000
0000080000
0000080000
0000080000
0000080000
0000080100
0000080600
0000081800
0000086000
0000098000
00000e0000
0000380000
0000c80000
0003080000
000c080000
0070080000
0000080000
0000080000
0000080000
0000080000
0000080000
0000080000
0000080000
0000080000
0000080000
0000080000
0000080000
0000080000
0000080000
0000080000
0000080000
0000080000
0000080000
0000080000
0000080000
0000080000
0000080000
0000080000
0000080000
0000080000
0000080000
0000080000
0000080000
0000080000
0000080000
0000080000
0000080000
0000080000
0000080000
0000080000
0000080000
0000080000
0000080000
0000080000
0000080000
0000100000
0000100000
0000100000
0000100000
0000300000
0000200000
0000200000
0000400000
0000c00000
4000800000
c001000000
2002000000
181c000000
07f0000000
ENDCHAR
STARTCHAR OverDoubleDot
ENCODING 208
SWIDTH 600 0
DWIDTH 19 0
BBX 11 4 4 1
BITMAP
60c0
f1e0
f1e0
60c0
ENDCHAR
STARTCHAR OverTripleDot
ENCODING 209
SWIDTH 600 0
DWIDTH 19 0
BBX 17 4 1 1
BITMAP
60c300
f1e780
f1e780
60c300
ENDCHAR
STARTCHAR OverLVector
ENCODING 210
SWIDTH 600 0
DWIDTH 19 0
BBX 16 5 1 2
BITMAP
0400
0800
1000
2000
ffff
ENDCHAR
STARTCHAR OverRVector
ENCODING 211
SWIDTH 600 0
DWIDTH 19 0
BBX 16 5 1 2
BITMAP
0020
0010
0008
0004
ffff
ENDCHAR
STARTCHAR OverLRVector
ENCODING 212
SWIDTH 600 0
DWIDTH 19 0
BBX 17 5 1 2
BITMAP
041000
080800
100400
200200
ffff80
ENDCHAR
STARTCHAR OverLArrow
ENCODING 213
SWIDTH 600 0
DWIDTH 19 0
BBX 16 9 1 -2
BITMAP
0800
1800
3000
6000
ffff
6000
3000
1800
0800
ENDCHAR
STARTCHAR OverArrowVectExt
ENCODING 214
SWIDTH 200 0
DWIDTH 6 0
BBX 6 1 0 2
BITMAP
fc
ENDCHAR
STARTCHAR OverRArrow
ENCODING 215
SWIDTH 600 0
DWIDTH 19 0
BBX 16 9 1 -2
BITMAP
0010
0018
000c
0006
ffff
0006
000c
0018
0010
ENDCHAR
STARTCHAR OverLRArrow
ENCODING 216
SWIDTH 600 0
DWIDTH 19 0
BBX 17 9 1 -2
BITMAP
080800
180c00
300600
600300
ffff80
600300
300600
180c00
080800
ENDCHAR
STARTCHAR Integral
ENCODING 217
SWIDTH 374 0
DWIDTH 12 0
BBX 17 40 1 -10
BITMAP
001e00
002180
004080
004000
008000
008000
008000
008000
008000
008000
008000
008000
008000
008000
008000
008000
008000
008000
008000
008000
008000
008000
008000
008000
008000
008000
008000
008000
008000
008000
008000
008000
008000
008000
008000
008000
010000
410000
c20000
3c0000
ENDCHAR
STARTCHAR Summation
ENCODING 218
SWIDTH 724 0
DWIDTH 23 0
BBX 21 28 1 -6
BITMAP
3ffff0
100010
180010
0c0010
040010
020010
030000
018000
008000
004000
006000
003000
001000
001800
003000
002000
004000
008000
018000
030000
020000
040008
080008
180008
300008
200008
400008
fffff8
ENDCHAR
STARTCHAR Product
ENCODING 219
SWIDTH 761 0
DWIDTH 24 0
BBX 22 28 1 -6
BITMAP
fffffc
100020
100020
100020
100020
100020
100020
100020
100020
100020
100020
100020
100020
100020
100020
100020
100020
100020
100020
100020
100020
100020
100020
100020
100020
100020
100020
fe01fc
ENDCHAR
STARTCHAR Intersection
ENCODING 220
SWIDTH 704 0
DWIDTH 23 0
BBX 20 29 1 -7
BITMAP
800010
800010
800010
800010
800010
800010
800010
800010
800010
800010
800010
800010
800010
800010
800010
800010
800010
800010
800010
800010
800010
800010
c00030
400020
600060
200040
180180
0e0700
01f800
ENDCHAR
STARTCHAR Union
ENCODING 221
SWIDTH 704 0
DWIDTH 23 0
BBX 20 28 1 -6
BITMAP
01f800
0e0700
180180
200040
600060
400020
800010
800010
800010
800010
800010
800010
800010
800010
800010
800010
800010
800010
800010
800010
800010
800010
800010
800010
800010
800010
800010
800010
ENDCHAR
STARTCHAR LogicalOr
ENCODING 222
SWIDTH 600 0
DWIDTH 19 0
BBX 17 18 1 0
BITMAP
c00180
400100
600300
200200
300600
100400
100400
080800
080800
041000
041000
063000
022000
036000
014000
014000
008000
008000
ENDCHAR
STARTCHAR LogicalAnd
ENCODING 223
SWIDTH 600 0
DWIDTH 19 0
BBX 17 18 1 0
BITMAP
008000
008000
014000
014000
036000
022000
063000
041000
041000
080800
080800
100400
100400
300600
200200
600300
400100
c00180
ENDCHAR
STARTCHAR Integral1
ENCODING 224
SWIDTH 571 0
DWIDTH 18 0
BBX 27 70 1 -22
BITMAP
00003f00
000061c0
00008060
00010000
00030000
00020000
00020000
00020000
00040000
00040000
00040000
00040000
00040000
00040000
00040000
00040000
00040000
00040000
00040000
00040000
00040000
00040000
00040000
00040000
00040000
00040000
00040000
00040000
00040000
00040000
00040000
00040000
00040000
00040000
00040000
00040000
00040000
00040000
00040000
00040000
00040000
00040000
00040000
00040000
00040000
00040000
00040000
00040000
00040000
00040000
00040000
00040000
00040000
00040000
00040000
00040000
00040000
00040000
00040000
00040000
00040000
00080000
00080000
00080000
00080000
00100000
00300000
c0600000
60c00000
1f000000
ENDCHAR
STARTCHAR Integral2
ENCODING 225
SWIDTH 796 0
DWIDTH 25 0
BBX 40 106 1 -35
BITMAP
00000007e0
0000001818
0000006006
000000c003
0000008001
0000010000
0000030000
0000020000
0000020000
0000040000
0000040000
0000040000
0000040000
00000c0000
0000080000
0000080000
0000080000
0000080000
0000080000
0000080000
0000080000
0000080000
0000080000
0000080000
0000080000
0000080000
0000080000
0000080000
0000080000
0000080000
0000080000
0000080000
0000080000
0000080000
0000080000
0000080000
0000080000
0000080000
0000080000
0000080000
0000080000
0000080000
0000080000
0000080000
0000080000
0000080000
0000080000
0000080000
0000080000
0000080000
0000080000
0000080000
0000080000
0000080000
0000080000
0000080000
0000080000
0000080000
0000080000
0000080000
0000080000
0000080000
0000080000
0000080000
0000080000
0000080000
0000080000
0000080000
0000080000
0000080000
0000080000
0000080000
0000080000
0000080000
0000080000
0000080000
0000080000
0000080000
0000080000
0000080000
0000080000
0000080000
0000080000
0000080000
0000080000
0000080000
0000080000
0000080000
0000080000
0000080000
0000080000
0000080000
0000100000
0000100000
0000100000
0000100000
0000300000
0000200000
0000200000
0000400000
0000c00000
4000800000
c001000000
2002000000
181c000000
07f0000000
ENDCHAR
STARTCHAR Sum1
ENCODING 226
SWIDTH 1205 0
DWIDTH 39 0
BBX 36 49 1 -16
BITMAP
0fffffffc0
0800000040
0400000040
0600000040
0300000040
0100000040
0080000040
00c0000040
0040000040
0020000040
0030000000
0018000000
0008000000
000c000000
0006000000
0002000000
0001000000
0001800000
0000800000
0000400000
0000600000
0000300000
0000100000
0000080000
0000100000
0000200000
0000600000
0000c00000
0000800000
0001000000
0002000000
0006000000
000c000000
0008000000
0010000000
0030000000
0060000000
0040000000
0080000010
0100000010
0300000010
0600000010
0400000010
0800000010
1800000010
3000000010
6000000010
4000000010
fffffffff0
ENDCHAR
STARTCHAR Sum2
ENCODING 227
SWIDTH 1759 0
DWIDTH 56 0
BBX 54 74 1 -26
BITMAP
07ffffffffffe0
06000000000020
03000000000020
01000000000020
01800000000020
00c00000000020
00400000000020
00200000000020
00300000000020
00100000000020
00080000000020
000c0000000020
00040000000020
00020000000020
00030000000020
00018000000000
00008000000000
00004000000000
00006000000000
00002000000000
00001000000000
00001800000000
00000800000000
00000400000000
00000600000000
00000300000000
00000100000000
00000080000000
000000c0000000
00000040000000
00000020000000
00000030000000
00000010000000
00000008000000
0000000c000000
00000006000000
00000004000000
0000000c000000
00000018000000
00000010000000
00000020000000
00000040000000
000000c0000000
00000180000000
00000100000000
00000200000000
00000600000000
00000c00000000
00001800000000
00001000000000
00002000000000
00006000000000
0000c000000000
00008000000000
00010000000000
00030000000000
00060000000000
000c0000000004
00080000000004
00100000000004
00300000000004
00600000000004
00400000000004
00800000000004
01000000000004
03000000000004
06000000000004
04000000000004
08000000000004
18000000000004
30000000000004
20000000000004
40000000000004
fffffffffffffc
ENDCHAR
STARTCHAR Product1
ENCODING 228
SWIDTH 1163 0
DWIDTH 37 0
BBX 35 49 1 -16
BITMAP
ffffffffe0
0800000200
0800000200
0800000200
0800000200
0800000200
0800000200
0800000200
0800000200
0800000200
0800000200
0800000200
0800000200
0800000200
0800000200
0800000200
0800000200
0800000200
0800000200
0800000200
0800000200
0800000200
0800000200
0800000200
0800000200
0800000200
0800000200
0800000200
0800000200
0800000200
0800000200
0800000200
0800000200
0800000200
0800000200
0800000200
0800000200
0800000200
0800000200
0800000200
0800000200
0800000200
0800000200
0800000200
0800000200
0800000200
0800000200
0800000200
ff80001fe0
ENDCHAR
STARTCHAR Product2
ENCODING 229
SWIDTH 1585 0
DWIDTH 51 0
BBX 47 74 2 -26
BITMAP
fffffffffffe
080000000020
080000000020
080000000020
080000000020
080000000020
080000000020
080000000020
080000000020
080000000020
080000000020
080000000020
080000000020
080000000020
080000000020
080000000020
080000000020
080000000020
080000000020
080000000020
080000000020
080000000020
080000000020
080000000020
080000000020
080000000020
080000000020
080000000020
080000000020
080000000020
080000000020
080000000020
080000000020
080000000020
080000000020
080000000020
080000000020
080000000020
080000000020
080000000020
080000000020
080000000020
080000000020
080000000020
080000000020
080000000020
080000000020
080000000020
080000000020
080000000020
080000000020
080000000020
080000000020
080000000020
080000000020
080000000020
080000000020
080000000020
080000000020
080000000020
080000000020
080000000020
080000000020
080000000020
080000000020
080000000020
080000000020
080000000020
080000000020
080000000020
080000000020
080000000020
080000000020
ffc0000007fe
ENDCHAR
STARTCHAR Union1
ENCODING 230
SWIDTH 1145 0
DWIDTH 37 0
BBX 34 50 1 -17
BITMAP
8000000040
8000000040
8000000040
8000000040
8000000040
8000000040
8000000040
8000000040
8000000040
8000000040
8000000040
8000000040
8000000040
8000000040
8000000040
8000000040
8000000040
8000000040
8000000040
8000000040
8000000040
8000000040
8000000040
8000000040
8000000040
8000000040
8000000040
8000000040
8000000040
8000000040
8000000040
8000000040
8000000040
8000000040
8000000040
8000000040
8000000040
8000000040
4000000080
4000000080
4000000080
2000000100
3000000300
1000000200
0800000400
0400000800
0300003000
00c000c000
0038070000
0007f80000
ENDCHAR
STARTCHAR Union2
ENCODING 231
SWIDTH 1677 0
DWIDTH 54 0
BBX 51 75 1 -27
BITMAP
80000000000020
80000000000020
80000000000020
80000000000020
80000000000020
80000000000020
80000000000020
80000000000020
80000000000020
80000000000020
80000000000020
80000000000020
80000000000020
80000000000020
80000000000020
80000000000020
80000000000020
80000000000020
80000000000020
80000000000020
80000000000020
80000000000020
80000000000020
80000000000020
80000000000020
80000000000020
80000000000020
80000000000020
80000000000020
80000000000020
80000000000020
80000000000020
80000000000020
80000000000020
80000000000020
80000000000020
80000000000020
80000000000020
80000000000020
80000000000020
80000000000020
80000000000020
80000000000020
80000000000020
80000000000020
80000000000020
80000000000020
80000000000020
80000000000020
80000000000020
80000000000020
80000000000020
80000000000020
80000000000020
80000000000020
80000000000020
40000000000040
40000000000040
40000000000040
60000000000040
20000000000080
20000000000080
10000000000100
18000000000300
08000000000200
04000000000600
02000000000c00
03000000001800
01800000003000
00600000006000
00300000018000
000c0000070000
000780001c0000
0000f001e00000
00000fff000000
ENDCHAR
STARTCHAR Intersect1
ENCODING 232
SWIDTH 1145 0
DWIDTH 37 0
BBX 34 50 1 -17
BITMAP
0007f80000
0038070000
00c000c000
0300003000
0400000800
0800000400
1000000200
3000000300
2000000100
4000000080
4000000080
4000000080
8000000040
8000000040
8000000040
8000000040
8000000040
8000000040
8000000040
8000000040
8000000040
8000000040
8000000040
8000000040
8000000040
8000000040
8000000040
8000000040
8000000040
8000000040
8000000040
8000000040
8000000040
8000000040
8000000040
8000000040
8000000040
8000000040
8000000040
8000000040
8000000040
8000000040
8000000040
8000000040
8000000040
8000000040
8000000040
8000000040
8000000040
8000000040
ENDCHAR
STARTCHAR Intersect2
ENCODING 233
SWIDTH 1677 0
DWIDTH 54 0
BBX 51 75 1 -27
BITMAP
00000fff000000
0000f001e00000
000780001c0000
001c0000070000
00300000018000
00600000006000
01800000003000
03000000001800
02000000000c00
04000000000600
08000000000200
18000000000300
10000000000100
20000000000080
20000000000080
60000000000040
40000000000040
40000000000040
40000000000040
80000000000020
80000000000020
80000000000020
80000000000020
80000000000020
80000000000020
80000000000020
80000000000020
80000000000020
80000000000020
80000000000020
80000000000020
80000000000020
80000000000020
80000000000020
80000000000020
80000000000020
80000000000020
80000000000020
80000000000020
80000000000020
80000000000020
80000000000020
80000000000020
80000000000020
80000000000020
80000000000020
80000000000020
80000000000020
80000000000020
80000000000020
80000000000020
80000000000020
80000000000020
80000000000020
80000000000020
80000000000020
80000000000020
80000000000020
80000000000020
80000000000020
80000000000020
80000000000020
80000000000020
80000000000020
80000000000020
80000000000020
80000000000020
80000000000020
80000000000020
80000000000020
80000000000020
80000000000020
80000000000020
80000000000020
80000000000020
ENDCHAR
STARTCHAR Or1
ENCODING 234
SWIDTH 741 0
DWIDTH 24 0
BBX 23 29 1 -7
BITMAP
c00006
400004
600004
200008
200008
300018
100010
100010
180030
080020
0c0020
040040
040040
0600c0
020080
020080
010100
010100
018100
008200
008200
00c600
004400
004400
002800
002800
003800
001000
001000
ENDCHAR
STARTCHAR Or2
ENCODING 235
SWIDTH 1215 0
DWIDTH 39 0
BBX 38 49 1 -16
BITMAP
c00000000c
4000000008
6000000018
2000000010
2000000010
3000000030
1000000020
1000000020
1800000060
0800000040
0c000000c0
0400000080
0400000080
0600000180
0200000100
0300000100
0100000300
0100000200
0180000600
0080000400
0080000400
00c0000c00
0040000800
0060001800
0020001000
0020001000
0030003000
0010002000
0010002000
0018006000
0008004000
000c00c000
0004008000
0004008000
0006018000
0002010000
0003010000
0001030000
0001020000
0001860000
0000840000
0000840000
0000cc0000
0000480000
0000680000
0000380000
0000300000
0000300000
0000100000
ENDCHAR
STARTCHAR And1
ENCODING 236
SWIDTH 741 0
DWIDTH 24 0
BBX 24 28 1 -6
BITMAP
001800
001800
003c00
003c00
003c00
006600
006600
00e700
00c300
00c300
018180
018180
0381c0
0300c0
0300c0
060060
060060
0e0070
0c0030
0c0030
180018
180018
38001c
30000c
30000c
70000e
600006
e00007
ENDCHAR
STARTCHAR And2
ENCODING 237
SWIDTH 1215 0
DWIDTH 39 0
BBX 39 50 1 -16
BITMAP
0000100000
0000380000
0000380000
00003c0000
00007c0000
00006c0000
0000ee0000
0000c60000
0000c60000
0001c70000
0001830000
0001830000
0003838000
0003018000
000701c000
000700c000
000600c000
000e00e000
000c006000
000c006000
001c007000
0018003000
0038003800
0038001800
0030001800
0070001c00
0060000c00
0060000c00
00e0000e00
00c0000600
01c0000700
01c0000300
0180000300
0380000380
0300000180
0300000180
07000001c0
06000000c0
06000000e0
0e000000e0
0c00000060
1c00000070
1800000030
1800000030
3800000038
3000000018
3000000018
700000001c
600000000c
e00000000e
ENDCHAR
STARTCHAR SmallVee
ENCODING 238
SWIDTH 600 0
DWIDTH 19 0
BBX 12 10 4 2
BITMAP
c030
4020
2040
30c0
1080
1980
0900
0f00
0600
0200
ENDCHAR
STARTCHAR SmallWedge
ENCODING 239
SWIDTH 600 0
DWIDTH 19 0
BBX 12 10 4 2
BITMAP
0200
0700
0f80
0d80
1dc0
18c0
38e0
3060
6030
e030
ENDCHAR
STARTCHAR DoubleGrave
ENCODING 240
SWIDTH 600 0
DWIDTH 19 0
BBX 12 5 4 1
BITMAP
e700
6180
30c0
1860
0c30
ENDCHAR
STARTCHAR Breve
ENCODING 241
SWIDTH 600 0
DWIDTH 19 0
BBX 10 3 5 2
BITMAP
c0c0
6180
3f00
ENDCHAR
STARTCHAR DownBreve
ENCODING 242
SWIDTH 600 0
DWIDTH 19 0
BBX 10 3 5 2
BITMAP
3f00
6180
c0c0
ENDCHAR
STARTCHAR OverTilde
ENCODING 243
SWIDTH 600 0
DWIDTH 19 0
BBX 12 4 3 2
BITMAP
3810
4430
c220
81c0
ENDCHAR
STARTCHAR Tilde2
ENCODING 244
SWIDTH 734 0
DWIDTH 23 0
BBX 24 4 0 0
BITMAP
0fc001
307002
400e0c
c003f0
ENDCHAR
STARTCHAR Tilde3
ENCODING 245
SWIDTH 1102 0
DWIDTH 35 0
BBX 36 4 0 0
BITMAP
03fc000030
1c03c00060
60007c0380
c00007fe00
ENDCHAR
STARTCHAR Tilde4
ENCODING 246
SWIDTH 1469 0
DWIDTH 47 0
BBX 47 5 0 0
BITMAP
00ffc0000006
0f807e00000c
380007c00038
600000f803e0
c000000fff00
ENDCHAR
STARTCHAR BackQuote
ENCODING 247
SWIDTH 600 0
DWIDTH 19 0
BBX 6 8 7 10
BITMAP
1c
38
38
30
70
60
60
c0
ENDCHAR
STARTCHAR DblBackQuote
ENCODING 248
SWIDTH 113 0
DWIDTH 4 0
BBX 12 8 7 10
BITMAP
3870
3860
30e0
30c0
70c0
6180
6180
c180
ENDCHAR
STARTCHAR Quote
ENCODING 249
SWIDTH 112 0
DWIDTH 4 0
BBX 6 8 9 10
BITMAP
e0
70
70
30
38
18
18
0c
ENDCHAR
STARTCHAR DblQuote
ENCODING 250
SWIDTH 181 0
DWIDTH 6 0
BBX 12 8 9 10
BITMAP
e1c0
61c0
70c0
30c0
30e0
1860
1860
1830
ENDCHAR
STARTCHAR VertBar
ENCODING 251
SWIDTH 181 0
DWIDTH 6 0
BBX 1 18 1 0
BITMAP
80
80
80
80
80
80
80
80
80
80
80
80
80
80
80
80
80
80
ENDCHAR
STARTCHAR DblVertBar
ENCODING 252
SWIDTH 1 0
DWIDTH 0 0
BBX 8 18 0 0
BITMAP
81
81
81
81
81
81
81
81
81
81
81
81
81
81
81
81
81
81
ENDCHAR
STARTCHAR VertBarExten
ENCODING 253
SWIDTH 0 0
DWIDTH 0 0
BBX 1 14 0 0
BITMAP
80
80
80
80
80
80
80
80
80
80
80
80
80
80
ENDCHAR
STARTCHAR DblVertBarExten
ENCODING 254
SWIDTH 0 0
DWIDTH 0 0
BBX 8 14 1 0
BITMAP
81
81
81
81
81
81
81
81
81
81
81
81
81
81
ENDCHAR
STARTCHAR Coproduct
ENCODING 255
SWIDTH 0 0
DWIDTH 0 0
BBX 17 18 0 0
BITMAP
fe3f80
100400
100400
100400
100400
100400
100400
100400
100400
100400
100400
100400
100400
100400
100400
100400
100400
ffff80
ENDCHAR
ENDFONT
